<svg width="28" height="28"  >
<path fill-rule="evenodd" clip-rule="evenodd" d="M7.1416 5.25C6.79643 5.25 6.5166 5.52983 6.5166 5.875V23.144L12.4805 19.7893L12.4805 19.7892C13.3049 19.3255 14.3116 19.3255 15.136 19.7892L15.1361 19.7893L21.0999 23.144V5.875C21.0999 5.52982 20.8201 5.25 20.4749 5.25H7.1416ZM4.7666 5.875C4.7666 4.56333 5.82993 3.5 7.1416 3.5H20.4749C21.7866 3.5 22.8499 4.56334 22.8499 5.875V23.9752C22.8499 24.942 21.8088 25.5504 20.9665 25.0768L20.9664 25.0767L14.2781 21.3145C14.2781 21.3145 14.2781 21.3145 14.2781 21.3145C13.9864 21.1505 13.6302 21.1505 13.3384 21.3145C13.3384 21.3145 13.3384 21.3145 13.3384 21.3145L6.65013 25.0767L6.65003 25.0768C5.80773 25.5504 4.7666 24.942 4.7666 23.9752V5.875Z" />
</svg>
