<svg width="28" height="28" viewBox="0 0 28 28" fill="none" xmlns="http://www.w3.org/2000/svg">
<path fill-rule="evenodd" clip-rule="evenodd" d="M20.7278 14C20.7278 13.0335 21.5113 12.25 22.4778 12.25C23.659 12.25 24.6167 11.2924 24.6167 10.1111C24.6167 8.92982 23.659 7.9722 22.4778 7.9722C21.5113 7.9722 20.7278 7.1887 20.7278 6.2222C20.7278 5.04093 19.7702 4.08331 18.5889 4.08331C17.4076 4.08331 16.45 5.04093 16.45 6.2222C16.45 7.1887 15.6665 7.9722 14.7 7.9722C13.7335 7.9722 12.95 7.1887 12.95 6.2222C12.95 5.04093 11.9924 4.08331 10.8111 4.08331C9.62983 4.08331 8.67221 5.04092 8.67221 6.2222C8.67221 7.1887 7.88871 7.9722 6.92221 7.9722C5.74094 7.9722 4.78333 8.92981 4.78333 10.1111C4.78333 11.2924 5.74094 12.25 6.92221 12.25C7.88871 12.25 8.67221 13.0335 8.67221 14C8.67221 14.9665 7.88871 15.75 6.92221 15.75C5.74094 15.75 4.78333 16.7076 4.78333 17.8889C4.78333 19.0701 5.74094 20.0278 6.92221 20.0278C7.88871 20.0278 8.67221 20.8113 8.67221 21.7778C8.67221 22.959 9.62983 23.9166 10.8111 23.9166C11.9924 23.9166 12.95 22.959 12.95 21.7778C12.95 20.8113 13.7335 20.0278 14.7 20.0278C15.6665 20.0278 16.45 20.8113 16.45 21.7778C16.45 22.959 17.4076 23.9166 18.5889 23.9166C19.7702 23.9166 20.7278 22.959 20.7278 21.7778C20.7278 20.8113 21.5113 20.0278 22.4778 20.0278C23.659 20.0278 24.6167 19.0701 24.6167 17.8889C24.6167 16.7076 23.659 15.75 22.4778 15.75C21.5113 15.75 20.7278 14.9665 20.7278 14ZM25.1596 15.0726C25.9032 15.781 26.3667 16.7808 26.3667 17.8889C26.3667 20.0366 24.6255 21.7778 22.4778 21.7778C22.4778 23.9255 20.7367 25.6666 18.5889 25.6666C17.4808 25.6666 16.481 25.2032 15.7726 24.4596C15.108 23.7619 14.7 22.8175 14.7 21.7778C14.7 22.8175 14.292 23.7619 13.6273 24.4596C12.919 25.2032 11.9192 25.6666 10.8111 25.6666C8.66333 25.6666 6.92221 23.9255 6.92221 21.7778C4.77444 21.7778 3.03333 20.0366 3.03333 17.8889C3.03333 16.7808 3.49675 15.781 4.24036 15.0726C4.9381 14.408 5.88251 14 6.92221 14C5.88251 14 4.93809 13.592 4.24036 12.9273C3.49675 12.219 3.03333 11.2192 3.03333 10.1111C3.03333 7.96332 4.77444 6.2222 6.92221 6.2222C6.92221 4.07443 8.66333 2.33331 10.8111 2.33331C11.9192 2.33331 12.919 2.79674 13.6273 3.54035C14.292 4.23808 14.7 5.1825 14.7 6.2222C14.7 5.1825 15.108 4.23808 15.7726 3.54035C16.481 2.79674 17.4808 2.33331 18.5889 2.33331C20.7367 2.33331 22.4778 4.07443 22.4778 6.2222C24.6255 6.2222 26.3667 7.96332 26.3667 10.1111C26.3667 11.2192 25.9032 12.219 25.1596 12.9273C24.4619 13.592 23.5175 14 22.4778 14C23.5175 14 24.4619 14.408 25.1596 15.0726Z" />
</svg>
