<svg width="29" height="28" viewBox="0 0 29 28" xmlns="http://www.w3.org/2000/svg">
<path fill-rule="evenodd" clip-rule="evenodd" d="M13.1091 8.74666C12.9512 8.90457 12.7568 8.98959 12.5018 8.98959V8.97744C12.2588 8.97744 12.0524 8.89242 11.8823 8.72237C11.7123 8.55232 11.6394 8.33369 11.6394 8.09076C11.6515 7.84783 11.7366 7.64134 11.8945 7.48344L15.089 4.20392C16.2914 2.96499 17.7612 2.33337 19.4616 2.33337C21.1621 2.33337 22.644 2.96499 23.8465 4.20392C24.8668 5.26065 25.462 6.51173 25.6199 7.92071C25.6442 8.15149 25.5713 8.37013 25.4134 8.54017C25.2555 8.72237 25.0247 8.81954 24.7818 8.81954C24.3323 8.81954 23.9315 8.443 23.8586 7.945C23.725 6.99758 23.2999 6.15948 22.6076 5.45499C21.7452 4.56831 20.6884 4.11889 19.4616 4.11889C18.2349 4.11889 17.1781 4.56831 16.3157 5.45499L13.1091 8.74666ZM15.3926 19.2656C15.5505 19.1077 15.757 19.0226 15.9999 19.0226H15.9878C16.2307 19.0226 16.4372 19.1077 16.6072 19.2777C16.7773 19.4478 16.8502 19.6664 16.8502 19.9093C16.838 20.1522 16.753 20.3587 16.5951 20.5166L13.4006 23.7962C12.1981 25.0351 10.7284 25.6667 9.02791 25.6667C7.32741 25.6667 5.84555 25.0351 4.64306 23.7962C3.44057 22.5572 2.83325 21.0511 2.83325 19.302C2.83325 17.5651 3.44057 16.0468 4.66736 14.82L7.86185 11.5283C8.0319 11.3704 8.23839 11.2854 8.48132 11.2854C8.72425 11.2854 8.93074 11.3704 9.10079 11.5405C9.27083 11.7105 9.34371 11.9292 9.34371 12.1721C9.33157 12.415 9.24654 12.6215 9.08864 12.7794L5.88199 16.0711C5.0196 16.9578 4.58233 18.0509 4.58233 19.3141C4.58233 20.5774 5.0196 21.6705 5.88199 22.5572C6.74439 23.4439 7.81327 23.8933 9.04005 23.8933C10.2668 23.8933 11.3236 23.4439 12.186 22.5572L15.3926 19.2656ZM28.2192 15.3057L28.2089 15.2956L28.207 15.2936L28.2192 15.3057ZM28.2089 15.2956C28.3657 15.4653 28.45 15.6711 28.45 15.9252C28.45 16.1803 28.3771 16.3867 28.207 16.5568C28.037 16.7268 27.8305 16.8119 27.5876 16.8119H24.1016V20.3951C24.1016 20.6501 24.0165 20.8566 23.8465 21.0267C23.6764 21.1967 23.47 21.2817 23.227 21.2817C22.9841 21.2817 22.7776 21.1967 22.6197 21.0267C22.4618 20.8566 22.3768 20.638 22.3768 20.3951V16.8119H18.8543C18.6357 16.8119 18.4292 16.7268 18.2713 16.5568C18.1134 16.3867 18.0284 16.1681 18.0284 15.9252C18.0284 15.7066 18.1134 15.5001 18.2713 15.3179C18.4292 15.1478 18.6478 15.0506 18.8908 15.0506H22.3768V11.4675C22.3768 11.2124 22.4618 11.0059 22.6319 10.8359C22.8019 10.6658 23.0084 10.5808 23.2513 10.5808C23.4942 10.5808 23.7007 10.6658 23.8708 10.8359C24.0287 11.0059 24.1137 11.2124 24.1137 11.4675V15.0506H27.5997C27.8378 15.0506 28.0409 15.1323 28.2089 15.2956ZM17.3726 9.85191C17.6155 9.85191 17.822 9.93694 17.9921 10.1191C18.1621 10.3013 18.2471 10.5078 18.2471 10.7507C18.2471 10.9815 18.1621 11.2002 17.9921 11.3702L11.6759 17.8563C11.5058 18.0385 11.2994 18.1236 11.0686 18.1236C10.8256 18.1236 10.6192 18.0264 10.4491 17.8563C10.2791 17.6741 10.194 17.4555 10.194 17.2247C10.194 16.9939 10.2791 16.7753 10.4491 16.6053L16.7653 10.1191C16.9353 9.93694 17.1418 9.85191 17.3726 9.85191Z"/>
</svg>
