<svg width="29" height="28" viewBox="0 0 29 28" fill="none" xmlns="http://www.w3.org/2000/svg">
<path fill-rule="evenodd" clip-rule="evenodd" d="M2.83325 19.4903C2.83325 17.8523 3.48397 16.2812 4.64226 15.123L7.38742 12.3778C7.77794 11.9873 8.41109 11.9873 8.8016 12.3778C9.19212 12.7683 9.19212 13.4015 8.8016 13.792L6.05643 16.5372C5.27322 17.3204 4.8332 18.3827 4.8332 19.4903C4.8332 20.5979 5.27322 21.6603 6.05643 22.4434C6.83965 23.2267 7.90193 23.6667 9.00957 23.6667C10.1172 23.6667 11.1795 23.2267 11.9627 22.4434L14.7078 19.6983C15.0984 19.3077 15.7316 19.3077 16.122 19.6983C16.5126 20.0888 16.5126 20.7219 16.122 21.1124L13.3769 23.8576C12.2186 25.016 10.6476 25.6666 9.00957 25.6666C7.37151 25.6666 5.80053 25.016 4.64226 23.8576C3.48397 22.6993 2.83325 21.1284 2.83325 19.4903ZM12.8778 8.30166C12.4873 7.91115 12.4873 7.27801 12.8778 6.88749L15.623 4.14232C16.7812 2.98403 18.3522 2.33332 19.9903 2.33331C21.6284 2.33332 23.1993 2.98403 24.3576 4.14232C25.5158 5.3006 26.1666 6.87157 26.1666 8.50963C26.1666 10.1477 25.5158 11.7187 24.3576 12.877L21.6124 15.6221C21.2219 16.0126 20.5887 16.0126 20.1982 15.6221C19.8077 15.2316 19.8077 14.5984 20.1982 14.208L22.9434 11.4628C23.7267 10.6795 24.1667 9.61728 24.1667 8.50963C24.1667 7.40199 23.7267 6.33971 22.9434 5.5565C22.1601 4.77328 21.0979 4.33327 19.9903 4.33327C18.8826 4.33327 17.8203 4.77327 17.0371 5.5565L14.2919 8.30166C13.9014 8.69218 13.2683 8.69218 12.8778 8.30166ZM10.1326 18.3673C9.74208 17.9767 9.74208 17.3437 10.1326 16.9531L17.4531 9.63265C17.8435 9.24215 18.4767 9.24215 18.8673 9.63265C19.2577 10.0232 19.2577 10.6563 18.8673 11.0468L11.5468 18.3673C11.1563 18.7578 10.5231 18.7578 10.1326 18.3673Z"/>
</svg>
