<svg width="28" height="28" viewBox="0 0 28 28" xmlns="http://www.w3.org/2000/svg">
<path fill-rule="evenodd" clip-rule="evenodd" d="M18.0834 7.00002C18.0834 9.25519 16.2552 11.0834 14 11.0834C11.7449 11.0834 9.91671 9.25519 9.91671 7.00002C9.91671 4.74485 11.7449 2.91669 14 2.91669C16.2552 2.91669 18.0834 4.74485 18.0834 7.00002ZM19.8334 7.00002C19.8334 10.2217 17.2217 12.8334 14 12.8334C10.7784 12.8334 8.16671 10.2217 8.16671 7.00002C8.16671 3.77836 10.7784 1.16669 14 1.16669C17.2217 1.16669 19.8334 3.77836 19.8334 7.00002ZM13.9989 15.75C18.7989 15.75 22.8059 19.1622 23.7198 23.6941C23.7233 23.7118 23.723 23.7214 23.7229 23.7245C23.7228 23.7278 23.7218 23.7319 23.7218 23.7319C23.7206 23.7354 23.7142 23.7542 23.6876 23.7824C23.6287 23.8451 23.5038 23.9167 23.3322 23.9167H4.66555C4.49394 23.9167 4.36915 23.8451 4.31026 23.7824C4.28363 23.7542 4.27713 23.7354 4.27606 23.7319C4.27606 23.7319 4.27501 23.7278 4.27485 23.7245C4.2747 23.7214 4.27451 23.7118 4.27807 23.6941C5.19182 19.1622 9.19885 15.75 13.9989 15.75ZM2.56258 23.3483C2.30788 24.6114 3.37689 25.6667 4.66555 25.6667H23.3322C24.6209 25.6667 25.6899 24.6116 25.4352 23.3483C24.36 18.0156 19.6483 14 13.9989 14C8.3494 14 3.63779 18.0156 2.56258 23.3483Z" />
</svg>
