<svg width="29" height="28" viewBox="0 0 29 28" xmlns="http://www.w3.org/2000/svg">
<path d="M19.3825 9.33333C19.3825 12.1408 17.1066 14.4167 14.2992 14.4167C11.4917 14.4167 9.21582 12.1408 9.21582 9.33333C9.21582 6.52589 11.4917 4.25 14.2992 4.25C17.1066 4.25 19.3825 6.52589 19.3825 9.33333Z"  stroke-width="1.5"/>
<mask id="path-2-inside-1_2733_28556" >
<path fill-rule="evenodd" clip-rule="evenodd" d="M23.8698 25.6663C24.4221 25.6663 24.8761 25.2168 24.8101 24.6684C24.246 19.983 19.7554 16.333 14.2993 16.333C8.84324 16.333 4.35264 19.983 3.78862 24.6684C3.72262 25.2168 4.17663 25.6663 4.72891 25.6663H23.8698Z"/>
</mask>
<path fill-rule="evenodd" clip-rule="evenodd" d="M23.8698 25.6663C24.4221 25.6663 24.8761 25.2168 24.8101 24.6684C24.246 19.983 19.7554 16.333 14.2993 16.333C8.84324 16.333 4.35264 19.983 3.78862 24.6684C3.72262 25.2168 4.17663 25.6663 4.72891 25.6663H23.8698Z" />
<path d="M14.2993 17.833C19.1377 17.833 22.8634 21.0483 23.3208 24.8477L26.2993 24.4892C25.6286 18.9177 20.3732 14.833 14.2993 14.833V17.833ZM5.27787 24.8477C5.73523 21.0483 9.46103 17.833 14.2993 17.833V14.833C8.22546 14.833 2.97005 18.9177 2.29937 24.4892L5.27787 24.8477ZM4.72891 27.1663H23.8698V24.1663H4.72891V27.1663ZM2.29937 24.4892C2.1113 26.0515 3.40352 27.1663 4.72891 27.1663V24.1663C4.8608 24.1663 4.9991 24.2201 5.10723 24.3324C5.22295 24.4525 5.30251 24.643 5.27787 24.8477L2.29937 24.4892ZM23.3208 24.8477C23.2962 24.6431 23.3757 24.4525 23.4915 24.3324C23.5996 24.2201 23.7379 24.1663 23.8698 24.1663V27.1663C25.1952 27.1663 26.4874 26.0515 26.2993 24.4892L23.3208 24.8477Z" fill="black" mask="url(#path-2-inside-1_2733_28556)"/>
</svg>
