<svg width="29" height="28" viewBox="0 0 29 28" xmlns="http://www.w3.org/2000/svg">
<path d="M11.2369 16.8636L3.60059 24.5M18.5106 16.2995L23.8585 11.2064C24.2654 10.8189 24.2733 10.1724 23.876 9.77511L18.3255 4.22457C17.9282 3.8273 17.2817 3.83518 16.8942 4.24204L11.8011 9.59C11.6228 9.77707 11.4083 9.92598 11.1707 10.0277C10.9331 10.1294 10.6774 10.1819 10.4189 10.1818H6.8594C6.0089 10.1818 5.58318 11.2099 6.18454 11.8112L16.2894 21.916C16.8907 22.5174 17.9188 22.0907 17.9188 21.2412V17.6817C17.9187 17.4232 17.9711 17.1675 18.0729 16.9299C18.1746 16.6923 18.3235 16.4778 18.5106 16.2995Z"  stroke-linecap="round" stroke-linejoin="round"/>
</svg>
