<svg width="20" height="21" viewBox="0 0 20 21" fill="none" xmlns="http://www.w3.org/2000/svg">
<path d="M3.5511 16.9487C3.84544 17.2347 4.33319 17.2347 4.61911 16.9487L10.0012 11.5666L15.3833 16.9487C15.6693 17.2347 16.1654 17.2431 16.4513 16.9487C16.7372 16.6544 16.7372 16.175 16.4513 15.8892L11.0692 10.4986L16.4513 5.11652C16.7372 4.8306 16.7457 4.34285 16.4513 4.05692C16.1569 3.76259 15.6693 3.76259 15.3833 4.05692L10.0012 9.43902L4.61911 4.05692C4.33319 3.76259 3.83703 3.75418 3.5511 4.05692C3.26518 4.35126 3.26518 4.8306 3.5511 5.11652L8.9332 10.4986L3.5511 15.8892C3.26518 16.175 3.25677 16.6628 3.5511 16.9487Z" fill="#6B7684"/>
</svg>
