<svg width="221" height="221" viewBox="0 0 221 221" fill="none" xmlns="http://www.w3.org/2000/svg">
<path fill-rule="evenodd" clip-rule="evenodd" d="M77.2593 0C97.2284 0 113.486 15.891 114.076 35.7171H114.108C114.698 15.891 130.955 0 150.924 0C171.267 0 187.758 16.4908 187.758 36.8333C187.758 37.191 187.753 37.5475 187.742 37.9027C206.407 39.7008 221 55.4285 221 74.5647C221 93.0094 207.442 108.288 189.749 110.978V111.818C207.442 114.508 221 129.786 221 148.231C221 167.364 206.411 183.09 187.751 184.892C187.364 204.899 171.024 221 150.924 221C130.824 221 114.484 204.899 114.098 184.891C114.094 184.891 114.09 184.892 114.086 184.892C113.699 204.9 97.3593 221 77.2593 221C57.1588 221 40.8188 204.899 40.433 184.89C39.2486 185.005 38.0478 185.064 36.8333 185.064C16.4908 185.064 0 168.573 0 148.231C0 131.369 11.3297 117.154 26.7916 112.783V110.012C11.3297 105.641 0 91.4257 0 74.5644C0 54.2219 16.4908 37.7311 36.8333 37.7311C38.0507 37.7311 39.2543 37.7902 40.4414 37.9056C40.4312 37.5494 40.4261 37.1919 40.4261 36.8333C40.4261 16.4908 56.9169 0 77.2593 0Z" fill="#CCD4DD"/>
<path d="M84.4474 147.333C98.3398 147.333 109.602 129.636 109.602 107.805C109.602 85.9738 98.3398 68.2764 84.4474 68.2764C70.555 68.2764 59.293 85.9738 59.293 107.805C59.293 129.636 70.555 147.333 84.4474 147.333Z" fill="white"/>
<path d="M93.7801 132.959C102.463 132.959 109.502 121.697 109.502 107.805C109.502 93.9124 102.463 82.6504 93.7801 82.6504C85.0974 82.6504 78.0586 93.9124 78.0586 107.805C78.0586 121.697 85.0974 132.959 93.7801 132.959Z" fill="#CCD4DD"/>
<path d="M135.205 147.333C148.85 147.333 159.91 129.636 159.91 107.805C159.91 85.9738 148.85 68.2764 135.205 68.2764C121.561 68.2764 110.5 85.9738 110.5 107.805C110.5 129.636 121.561 147.333 135.205 147.333Z" fill="white"/>
<path d="M144.085 132.959C152.768 132.959 159.807 121.697 159.807 107.805C159.807 93.9124 152.768 82.6504 144.085 82.6504C135.403 82.6504 128.364 93.9124 128.364 107.805C128.364 121.697 135.403 132.959 144.085 132.959Z" fill="#CCD4DD"/>
</svg>
