<svg width="24" height="24" viewBox="0 0 24 24" fill="none" xmlns="http://www.w3.org/2000/svg">
<path fill-rule="evenodd" clip-rule="evenodd" d="M17.1789 9.84278C17.1789 13.3464 14.34 16.1856 10.8394 16.1856C7.33887 16.1856 4.5 13.3464 4.5 9.84278C4.5 6.33916 7.33887 3.5 10.8394 3.5C14.34 3.5 17.1789 6.33916 17.1789 9.84278ZM15.8305 15.891C14.4747 17.012 12.7357 17.6856 10.8394 17.6856C6.50984 17.6856 3 14.1742 3 9.84278C3 5.51133 6.50984 2 10.8394 2C15.169 2 18.6789 5.51133 18.6789 9.84278C18.6789 11.7369 18.0077 13.4741 16.8904 14.8295L20.7819 18.7228C21.0748 19.0157 21.0747 19.4906 20.7817 19.7834C20.4887 20.0763 20.0139 20.0762 19.721 19.7832L15.8305 15.891Z" fill="black"/>
</svg>
