<svg width="24" height="24" viewBox="0 0 29 28" >
<path fill-rule="evenodd" clip-rule="evenodd" d="M20.942 11.4832C20.942 15.5708 17.6299 18.8832 13.5459 18.8832C9.46192 18.8832 6.1499 15.5708 6.1499 11.4832C6.1499 7.39567 9.46192 4.08331 13.5459 4.08331C17.6299 4.08331 20.942 7.39567 20.942 11.4832ZM19.3688 18.5395C17.7871 19.8473 15.7582 20.6332 13.5459 20.6332C8.49472 20.6332 4.3999 16.5365 4.3999 11.4832C4.3999 6.42986 8.49472 2.33331 13.5459 2.33331C18.5971 2.33331 22.692 6.42986 22.692 11.4832C22.692 13.693 21.9089 15.7198 20.6054 17.3011L25.1455 21.8432C25.4872 22.185 25.4871 22.739 25.1452 23.0806C24.8034 23.4223 24.2495 23.4222 23.9077 23.0804L19.3688 18.5395Z" />
</svg>
