<svg width="31" height="30" viewBox="0 0 31 30" fill="none" xmlns="http://www.w3.org/2000/svg">
<path d="M16.0547 8.53846C17.138 8.53846 18.4959 7.8061 19.3045 6.82962C20.0369 5.94469 20.5709 4.70884 20.5709 3.47298C20.5709 3.30515 20.5556 3.13732 20.5251 3C19.3198 3.04577 17.8703 3.80865 17.0006 4.8309C16.314 5.60903 15.6885 6.82963 15.6885 8.08074C15.6885 8.26383 15.719 8.44692 15.7343 8.50795C15.8106 8.5232 15.9326 8.53846 16.0547 8.53846ZM12.2403 27C13.7203 27 14.3764 26.0083 16.2225 26.0083C18.0992 26.0083 18.5111 26.9695 20.1589 26.9695C21.7762 26.9695 22.8595 25.4743 23.8818 24.0095C25.0261 22.3312 25.499 20.6834 25.5296 20.6071C25.4228 20.5766 22.3255 19.3102 22.3255 15.7552C22.3255 12.6732 24.7667 11.2848 24.904 11.178C23.2867 8.85887 20.8303 8.79784 20.1589 8.79784C18.3433 8.79784 16.8633 9.89638 15.9326 9.89638C14.9256 9.89638 13.5982 8.85887 12.0267 8.85887C9.03624 8.85887 6 11.3306 6 15.9994C6 18.8983 7.12905 21.965 8.51748 23.9485C9.70756 25.6268 10.7451 27 12.2403 27Z" fill="white"/>
</svg>
