<svg width="31" height="30" viewBox="0 0 31 30" fill="none" xmlns="http://www.w3.org/2000/svg">
<path fill-rule="evenodd" clip-rule="evenodd" d="M26.0001 15.2481C26.0001 14.4681 25.9287 13.7181 25.796 12.998H15.2246V17.2531H21.2654C21.0052 18.6281 20.2144 19.7931 19.0256 20.5731V23.3332H22.6532C24.7756 21.4182 26.0001 18.5981 26.0001 15.2481Z" fill="#4285F4"/>
<path fill-rule="evenodd" clip-rule="evenodd" d="M15.224 26C18.2546 26 20.7954 25.0149 22.6525 23.3349L19.025 20.5749C18.0199 21.2349 16.7342 21.6249 15.224 21.6249C12.3005 21.6249 9.82601 19.6899 8.94336 17.0898H5.19336V19.9399C7.0403 23.5349 10.8362 26 15.224 26Z" fill="#34A853"/>
<path fill-rule="evenodd" clip-rule="evenodd" d="M8.94388 17.0906C8.71939 16.4306 8.59184 15.7256 8.59184 15.0006C8.59184 14.2756 8.71939 13.5706 8.94388 12.9106V10.0605H5.19388C4.43367 11.5456 4 13.2256 4 15.0006C4 16.7756 4.43367 18.4557 5.19388 19.9407L8.94388 17.0906Z" fill="#FBBC05"/>
<path fill-rule="evenodd" clip-rule="evenodd" d="M15.224 8.37506C16.8719 8.37506 18.3515 8.93006 19.5148 10.0201L22.7342 6.86504C20.7903 5.09001 18.2495 4 15.224 4C10.8362 4 7.0403 6.46503 5.19336 10.0601L8.94336 12.9101C9.82601 10.3101 12.3005 8.37506 15.224 8.37506Z" fill="#EA4335"/>
</svg>
