<svg width="29" height="28" viewBox="0 0 29 28" fill="none" xmlns="http://www.w3.org/2000/svg">
<rect width="28" height="28" transform="translate(0.375)" fill="white"/>
<path fill-rule="evenodd" clip-rule="evenodd" d="M7.4165 5.25C7.07133 5.25 6.7915 5.52983 6.7915 5.875V23.144L12.7554 19.7893L12.7554 19.7892C13.5798 19.3255 14.5865 19.3255 15.4109 19.7892L15.411 19.7893L21.3748 23.144V5.875C21.3748 5.52982 21.095 5.25 20.7498 5.25H7.4165ZM5.0415 5.875C5.0415 4.56333 6.10483 3.5 7.4165 3.5H20.7498C22.0615 3.5 23.1248 4.56334 23.1248 5.875V23.9752C23.1248 24.942 22.0837 25.5504 21.2414 25.0768L21.2413 25.0767L14.553 21.3145C14.553 21.3145 14.553 21.3145 14.553 21.3145C14.2613 21.1505 13.9051 21.1505 13.6133 21.3145C13.6133 21.3145 13.6133 21.3145 13.6133 21.3145L6.92503 25.0767L6.92493 25.0768C6.08264 25.5504 5.0415 24.942 5.0415 23.9752V5.875Z" fill="black"/>
</svg>
