<svg width="26" height="26" viewBox="0 0 26 26" fill="none" xmlns="http://www.w3.org/2000/svg">
<path d="M4.61687 21.3834C4.99951 21.7552 5.63358 21.7552 6.00529 21.3834L13.002 14.3867L19.9987 21.3834C20.3705 21.7552 21.0155 21.7661 21.3871 21.3834C21.7588 21.0008 21.7588 20.3777 21.3871 20.006L14.3904 12.9983L21.3871 6.00158C21.7588 5.62987 21.7698 4.9958 21.3871 4.6241C21.0045 4.24146 20.3705 4.24146 19.9987 4.6241L13.002 11.6208L6.00529 4.6241C5.63358 4.24146 4.98858 4.23053 4.61687 4.6241C4.24517 5.00673 4.24517 5.62987 4.61687 6.00158L11.6136 12.9983L4.61687 20.006C4.24517 20.3777 4.23424 21.0117 4.61687 21.3834Z" />
</svg>
