<svg width="29" height="28" viewBox="0 0 29 28" fill="none" xmlns="http://www.w3.org/2000/svg">
<path d="M8.85112 14.0007C8.85112 14.2695 8.95856 14.5168 9.1629 14.7103L17.679 23.0544C17.8726 23.2372 18.1091 23.334 18.3887 23.334C18.9371 23.334 19.3672 22.9146 19.3672 22.3555C19.3672 22.0867 19.2597 21.8394 19.0876 21.6566L11.2597 14.0007L19.0876 6.3448C19.2597 6.16202 19.3672 5.92538 19.3672 5.64589C19.3672 5.08673 18.9371 4.66732 18.3887 4.66732C18.1091 4.66732 17.8726 4.76412 17.679 4.95772L9.1629 13.291C8.95856 13.4953 8.85112 13.7319 8.85112 14.0007Z" />
</svg>
