<svg width="29" height="28" viewBox="0 0 29 28" fill="none" xmlns="http://www.w3.org/2000/svg">
<path d="M4.7915 4.76853C4.7915 2.82207 6.98799 1.66509 8.61963 2.75304L22.3752 11.9234C22.7075 12.1452 22.98 12.4441 23.1688 12.7941C23.3575 13.144 23.4569 13.5344 23.4582 13.9312C23.4594 14.3279 23.3625 14.7189 23.176 15.07C22.9894 15.4212 22.7189 15.7218 22.3879 15.9456L8.6324 25.2404C7.00174 26.341 4.7915 25.186 4.7915 23.2327V4.76853ZM7.52237 4.36602C7.44852 4.31661 7.36247 4.28802 7.27345 4.28333C7.18443 4.27864 7.0958 4.29801 7.01705 4.33938C6.93831 4.38074 6.87243 4.44254 6.82647 4.51814C6.78051 4.59374 6.7562 4.6803 6.75616 4.76853V23.2337C6.75632 23.322 6.78082 23.4087 6.82702 23.4843C6.87322 23.56 6.93938 23.6217 7.01838 23.6629C7.09738 23.7041 7.18623 23.7232 7.27538 23.7181C7.36453 23.7131 7.4506 23.6841 7.52434 23.6342L21.2799 14.3404C21.3462 14.2957 21.4005 14.2356 21.4379 14.1653C21.4754 14.0951 21.4948 14.0168 21.4946 13.9374C21.4945 13.858 21.4746 13.7798 21.4368 13.7097C21.399 13.6396 21.3445 13.5798 21.2779 13.5354L7.52237 4.36602Z" />
</svg>
