<svg width="29" height="28" viewBox="0 0 29 28" xmlns="http://www.w3.org/2000/svg">
<path d="M18.7827 13.9993C18.7827 13.7305 18.6752 13.4832 18.4709 13.2897L9.95477 4.94559C9.76123 4.76279 9.52466 4.66602 9.2451 4.66602C8.69671 4.66602 8.2666 5.08537 8.2666 5.64451C8.2666 5.91333 8.37413 6.16064 8.54617 6.34343L16.3741 13.9993L8.54617 21.6552C8.37413 21.838 8.2666 22.0746 8.2666 22.3541C8.2666 22.9133 8.69671 23.3327 9.2451 23.3327C9.52466 23.3327 9.76123 23.2359 9.95477 23.0423L18.4709 14.709C18.6752 14.5047 18.7827 14.2681 18.7827 13.9993Z" />
</svg>
