<svg width="29" height="28" viewBox="0 0 29 28" fill="none" xmlns="http://www.w3.org/2000/svg">
<path d="M23.4585 4.76853C23.4585 2.82207 21.262 1.66509 19.6304 2.75304L5.87483 11.9234C5.54247 12.1452 5.27001 12.4441 5.08123 12.7941C4.89245 13.144 4.7931 13.5344 4.79184 13.9312C4.79058 14.3279 4.88745 14.7189 5.07401 15.07C5.26056 15.4212 5.53111 15.7218 5.86206 15.9456L19.6176 25.2404C21.2483 26.341 23.4585 25.186 23.4585 23.2327V4.76853ZM20.7276 4.36602C20.8015 4.31661 20.8875 4.28802 20.9766 4.28333C21.0656 4.27864 21.1542 4.29801 21.2329 4.33938C21.3117 4.38074 21.3776 4.44254 21.4235 4.51814C21.4695 4.59374 21.4938 4.6803 21.4938 4.76853V23.2337C21.4937 23.322 21.4692 23.4087 21.423 23.4843C21.3768 23.56 21.3106 23.6217 21.2316 23.6629C21.1526 23.7041 21.0638 23.7232 20.9746 23.7181C20.8855 23.7131 20.7994 23.6841 20.7257 23.6342L6.97013 14.3404C6.90378 14.2957 6.84952 14.2356 6.81208 14.1653C6.77464 14.0951 6.75516 14.0168 6.75535 13.9374C6.75555 13.858 6.77541 13.7798 6.81319 13.7097C6.85097 13.6396 6.90553 13.5798 6.97209 13.5354L20.7276 4.36602Z" />
</svg>
