<svg width="24" height="24" viewBox="0 0 24 24" fill="none" xmlns="http://www.w3.org/2000/svg">
<path d="M9.54545 14.4545L3 21M15.78 13.971L20.258 9.70641C20.6648 9.31894 20.6727 8.67243 20.2754 8.27515L15.7248 3.72457C15.3276 3.3273 14.6811 3.33518 14.2936 3.74204L10.029 8.22C9.87614 8.38034 9.69232 8.50798 9.48868 8.59518C9.28503 8.68238 9.0658 8.72731 8.84427 8.72727H5.79327C5.06427 8.72727 4.69936 9.60845 5.21482 10.1239L13.8761 18.7852C14.3915 19.3006 15.2727 18.9349 15.2727 18.2067V15.1557C15.2727 14.9342 15.3176 14.715 15.4048 14.5113C15.492 14.3077 15.6197 14.1239 15.78 13.971Z" stroke-width="1.5" stroke-linecap="round" stroke-linejoin="round"/>
</svg>
