<svg width="29" height="28" viewBox="0 0 29 28" fill="none" xmlns="http://www.w3.org/2000/svg">
<path d="M12.0368 16.8636L4.40039 24.5M19.3104 16.2995L24.6584 11.2064C25.0652 10.8189 25.0731 10.1724 24.6758 9.77511L19.1253 4.22457C18.728 3.8273 18.0815 3.83518 17.694 4.24204L12.6009 9.59C12.4226 9.77707 12.2081 9.92598 11.9705 10.0277C11.7329 10.1294 11.4772 10.1819 11.2187 10.1818H7.65921C6.80871 10.1818 6.38298 11.2099 6.98434 11.8112L17.0892 21.916C17.6905 22.5174 18.7186 22.0907 18.7186 21.2412V17.6817C18.7185 17.4232 18.771 17.1675 18.8727 16.9299C18.9744 16.6923 19.1233 16.4778 19.3104 16.2995Z" stroke-width="1.5" stroke-linecap="round" stroke-linejoin="round"/>
</svg>
