<svg width="26" height="27" viewBox="0 0 26 27" fill="none" xmlns="http://www.w3.org/2000/svg">
<rect width="26" height="26" transform="translate(0 0.5)"/>
<path fill-rule="evenodd" clip-rule="evenodd" d="M18.279 8.19989C18.9215 8.84955 19.3895 9.54656 19.719 10.1165C19.7795 10.2212 19.8353 10.3215 19.8867 10.4165C19.5554 9.80406 19.0394 8.96883 18.279 8.19989ZM20.9311 9.48673C20.9311 9.4867 20.9311 9.48676 20.9311 9.48673V9.48673ZM20.2667 16.6095C19.8949 17.5045 19.3515 18.3202 18.6663 19.0117C17.3918 20.2965 15.5993 21.1466 13.4026 21.1466C8.87708 21.1466 5.96882 17.4891 5.96882 13.8C5.96882 10.1108 8.87708 6.45338 13.4026 6.45338C16.6868 6.45338 18.4762 8.62314 19.371 10.1165H17.5091C17.2491 10.1165 16.9991 10.2186 16.8142 10.4014C16.6292 10.5843 16.5247 10.8331 16.5247 11.0932C16.5247 11.3534 16.6292 11.6022 16.8142 11.7851C16.9991 11.9678 17.2491 12.0699 17.5091 12.0699H21.6155C21.8755 12.0699 22.1257 11.9678 22.3104 11.7851C22.4954 11.6022 22.6 11.3534 22.6 11.0932V7.03308C22.6 6.77294 22.4954 6.52416 22.3104 6.34126C22.1257 6.15848 21.8755 6.05639 21.6155 6.05639C21.3555 6.05639 21.1055 6.15848 20.9207 6.34126C20.7358 6.52416 20.6311 6.77294 20.6311 7.03308V8.44937C19.4357 6.72633 17.1984 4.5 13.4026 4.5C7.65697 4.5 4 9.16696 4 13.8C4 18.433 7.65697 23.0999 13.4026 23.0999C16.1462 23.0999 18.437 22.0237 20.0683 20.3829C20.9323 19.5116 21.6178 18.4831 22.087 17.354C22.1364 17.2351 22.1616 17.1076 22.1612 16.9789C22.1609 16.8502 22.1348 16.7228 22.0847 16.6042C22.0347 16.4857 21.9615 16.3782 21.8697 16.2879C21.7779 16.1977 21.6691 16.1263 21.5498 16.0779C21.4305 16.0294 21.3028 16.0047 21.174 16.0051C21.0452 16.0054 20.9176 16.0309 20.7986 16.08C20.6795 16.1292 20.5712 16.2011 20.4799 16.2919C20.3886 16.3827 20.3161 16.4906 20.2667 16.6095Z" fill="black"/>
</svg>
