<svg width="29" height="28" viewBox="0 0 29 28" fill="none" xmlns="http://www.w3.org/2000/svg">
<path fill-rule="evenodd" clip-rule="evenodd" d="M2.9585 19.491C2.9585 17.8529 3.60921 16.2819 4.7675 15.1237L7.51267 12.3785C7.90319 11.988 8.53634 11.988 8.92684 12.3785C9.31736 12.769 9.31736 13.4022 8.92684 13.7927L6.18168 16.5379C5.39846 17.3211 4.95845 18.3834 4.95845 19.491C4.95845 20.5986 5.39846 21.6609 6.18168 22.4441C6.96489 23.2274 8.02717 23.6674 9.13482 23.6674C10.2425 23.6674 11.3047 23.2274 12.088 22.4441L14.8331 19.699C15.2237 19.3084 15.8568 19.3084 16.2473 19.699C16.6379 20.0895 16.6379 20.7226 16.2473 21.1131L13.5021 23.8583C12.3438 25.0166 10.7729 25.6673 9.13482 25.6673C7.49675 25.6673 5.92578 25.0166 4.7675 23.8583C3.60921 22.7 2.9585 21.1291 2.9585 19.491ZM13.003 8.30233C12.6125 7.91183 12.6125 7.27868 13.003 6.88816L15.7482 4.14299C16.9064 2.9847 18.4775 2.33399 20.1155 2.33398C21.7536 2.33399 23.3245 2.9847 24.4828 4.14299C25.641 5.30127 26.2918 6.87224 26.2918 8.51031C26.2918 10.1484 25.641 11.7193 24.4828 12.8776L21.7376 15.6227C21.3471 16.0133 20.714 16.0133 20.3234 15.6227C19.9329 15.2323 19.9329 14.5991 20.3234 14.2087L23.0686 11.4634C23.8519 10.6802 24.2919 9.61795 24.2919 8.51031C24.2919 7.40266 23.8519 6.34038 23.0686 5.55717C22.2854 4.77395 21.2232 4.33394 20.1155 4.33394C19.0078 4.33394 17.9456 4.77394 17.1623 5.55717L14.4172 8.30233C14.0267 8.69285 13.3935 8.69285 13.003 8.30233ZM10.2578 18.368C9.86733 17.9774 9.86733 17.3443 10.2578 16.9538L17.5783 9.63332C17.9688 9.24282 18.6019 9.24282 18.9925 9.63332C19.383 10.0238 19.383 10.657 18.9925 11.0475L11.672 18.368C11.2815 18.7584 10.6484 18.7584 10.2578 18.368Z" fill="black"/>
</svg>
