<svg width="29" height="28" viewBox="0 0 29 28" fill="none" xmlns="http://www.w3.org/2000/svg">
<path fill-rule="evenodd" clip-rule="evenodd" d="M12.9091 8.74666C12.7512 8.90457 12.5569 8.98959 12.3018 8.98959V8.97744C12.0589 8.97744 11.8524 8.89242 11.6824 8.72237C11.5123 8.55232 11.4394 8.33369 11.4394 8.09076C11.4516 7.84783 11.5366 7.64134 11.6945 7.48344L14.889 4.20392C16.0915 2.96499 17.5612 2.33337 19.2617 2.33337C20.9622 2.33337 22.444 2.96499 23.6465 4.20392C24.6668 5.26065 25.262 6.51173 25.4199 7.92071C25.4442 8.15149 25.3713 8.37013 25.2134 8.54017C25.0555 8.72237 24.8247 8.81954 24.5818 8.81954C24.1324 8.81954 23.7316 8.443 23.6587 7.945C23.5251 6.99758 23.1 6.15948 22.4076 5.45499C21.5452 4.56831 20.4885 4.11889 19.2617 4.11889C18.0349 4.11889 16.9782 4.56831 16.1158 5.45499L12.9091 8.74666ZM15.1927 19.2656C15.3506 19.1077 15.5571 19.0226 15.8 19.0226H15.7878C16.0308 19.0226 16.2372 19.1077 16.4073 19.2777C16.5773 19.4478 16.6502 19.6664 16.6502 19.9093C16.6381 20.1522 16.5531 20.3587 16.3952 20.5166L13.2007 23.7962C11.9982 25.0351 10.5284 25.6667 8.82796 25.6667C7.12746 25.6667 5.6456 25.0351 4.44311 23.7962C3.24062 22.5572 2.6333 21.0511 2.6333 19.302C2.6333 17.5651 3.24062 16.0468 4.4674 14.82L7.6619 11.5283C7.83195 11.3704 8.03844 11.2854 8.28137 11.2854C8.5243 11.2854 8.73078 11.3704 8.90083 11.5405C9.07088 11.7105 9.14376 11.9292 9.14376 12.1721C9.13162 12.415 9.04659 12.6215 8.88869 12.7794L5.68204 16.0711C4.81965 16.9578 4.38238 18.0509 4.38238 19.3141C4.38238 20.5774 4.81965 21.6705 5.68204 22.5572C6.54444 23.4439 7.61332 23.8933 8.8401 23.8933C10.0669 23.8933 11.1236 23.4439 11.986 22.5572L15.1927 19.2656ZM28.0192 15.3057L28.0089 15.2956L28.0071 15.2936L28.0192 15.3057ZM28.0089 15.2956C28.1657 15.4653 28.25 15.6711 28.25 15.9252C28.25 16.1803 28.1771 16.3867 28.0071 16.5568C27.837 16.7268 27.6306 16.8119 27.3876 16.8119H23.9016V20.3951C23.9016 20.6501 23.8166 20.8566 23.6465 21.0267C23.4765 21.1967 23.27 21.2817 23.0271 21.2817C22.7842 21.2817 22.5777 21.1967 22.4198 21.0267C22.2619 20.8566 22.1768 20.638 22.1768 20.3951V16.8119H18.6544C18.4357 16.8119 18.2293 16.7268 18.0714 16.5568C17.9134 16.3867 17.8284 16.1681 17.8284 15.9252C17.8284 15.7066 17.9134 15.5001 18.0714 15.3179C18.2293 15.1478 18.4479 15.0506 18.6908 15.0506H22.1768V11.4675C22.1768 11.2124 22.2619 11.0059 22.4319 10.8359C22.602 10.6658 22.8084 10.5808 23.0514 10.5808C23.2943 10.5808 23.5008 10.6658 23.6708 10.8359C23.8287 11.0059 23.9138 11.2124 23.9138 11.4675V15.0506H27.3998C27.6378 15.0506 27.8409 15.1323 28.0089 15.2956ZM17.1726 9.85191C17.4156 9.85191 17.6221 9.93694 17.7921 10.1191C17.9622 10.3013 18.0472 10.5078 18.0472 10.7507C18.0472 10.9815 17.9622 11.2002 17.7921 11.3702L11.4759 17.8563C11.3059 18.0385 11.0994 18.1236 10.8686 18.1236C10.6257 18.1236 10.4192 18.0264 10.2492 17.8563C10.0791 17.6741 9.99408 17.4555 9.99408 17.2247C9.99408 16.9939 10.0791 16.7753 10.2492 16.6053L16.5653 10.1191C16.7354 9.93694 16.9419 9.85191 17.1726 9.85191Z"/>
</svg>
