<svg width="29" height="28" viewBox="0 0 29 28"  xmlns="http://www.w3.org/2000/svg">
<path fill-rule="evenodd" clip-rule="evenodd" d="M16.8331 6.1253C16.8332 5.23944 17.1435 4.38157 17.71 3.70058C18.2766 3.0196 19.0638 2.55849 19.9348 2.39729C20.8059 2.2361 21.7059 2.38499 22.4787 2.81812C23.2514 3.25126 23.8481 3.94129 24.1652 4.76846C24.4823 5.59563 24.4998 6.50772 24.2146 7.34641C23.9293 8.18511 23.3595 8.89747 22.6039 9.35985C21.8482 9.82223 20.9546 10.0054 20.078 9.87769C19.2014 9.74994 18.3972 9.31928 17.8049 8.66047L14.6351 10.3895L11.0884 12.416C11.5843 13.2887 11.7143 14.3223 11.4501 15.2906L17.8049 18.7568C18.4267 18.066 19.2804 17.6277 20.2041 17.5249C21.1278 17.4222 22.057 17.6623 22.8153 18.1996C23.5736 18.7369 24.1082 19.534 24.3175 20.4395C24.5268 21.3449 24.3962 22.2958 23.9506 23.1113C23.505 23.9269 22.7754 24.5504 21.9004 24.8635C21.0253 25.1765 20.0658 25.1573 19.204 24.8094C18.3422 24.4616 17.6382 23.8093 17.2256 22.9766C16.813 22.1438 16.7207 21.1885 16.9661 20.2921L10.6113 16.8271C10.127 17.3658 9.49848 17.7545 8.8002 17.9472C8.10191 18.1398 7.36304 18.1284 6.67102 17.9144C5.979 17.7003 5.36278 17.2924 4.8953 16.7391C4.42781 16.1857 4.12861 15.5101 4.0331 14.792C3.9376 14.0739 4.04978 13.3435 4.35638 12.6872C4.66297 12.0309 5.15115 11.4762 5.76315 11.0887C6.37515 10.7011 7.08536 10.497 7.80973 10.5005C8.53411 10.5039 9.24233 10.7148 9.85061 11.1081L13.7823 8.86114L16.9661 7.12397C16.8776 6.79847 16.8329 6.46262 16.8331 6.1253ZM20.6248 4.08364C20.0833 4.08364 19.564 4.29874 19.1811 4.68163C18.7982 5.06451 18.5831 5.58382 18.5831 6.1253C18.5831 6.66679 18.7982 7.18609 19.1811 7.56898C19.564 7.95187 20.0833 8.16697 20.6248 8.16697C21.1663 8.16697 21.6856 7.95187 22.0685 7.56898C22.4513 7.18609 22.6664 6.66679 22.6664 6.1253C22.6664 5.58382 22.4513 5.06451 22.0685 4.68163C21.6856 4.29874 21.1663 4.08364 20.6248 4.08364ZM7.79145 12.2503C7.24996 12.2503 6.73066 12.4654 6.34777 12.8483C5.96488 13.2312 5.74978 13.7505 5.74978 14.292C5.74978 14.8335 5.96488 15.3528 6.34777 15.7356C6.73066 16.1185 7.24996 16.3336 7.79145 16.3336C8.33293 16.3336 8.85224 16.1185 9.23512 15.7356C9.61801 15.3528 9.83311 14.8335 9.83311 14.292C9.83311 13.7505 9.61801 13.2312 9.23512 12.8483C8.85224 12.4654 8.33293 12.2503 7.79145 12.2503ZM18.5831 21.292C18.5831 20.7505 18.7982 20.2312 19.1811 19.8483C19.564 19.4654 20.0833 19.2503 20.6248 19.2503C21.1663 19.2503 21.6856 19.4654 22.0685 19.8483C22.4513 20.2312 22.6664 20.7505 22.6664 21.292C22.6664 21.8335 22.4513 22.3528 22.0685 22.7356C21.6856 23.1185 21.1663 23.3336 20.6248 23.3336C20.0833 23.3336 19.564 23.1185 19.1811 22.7356C18.7982 22.3528 18.5831 21.8335 18.5831 21.292Z" />
</svg>
