<svg width="29" height="28" viewBox="0 0 29 28" xmlns="http://www.w3.org/2000/svg">
<path fill-rule="evenodd" clip-rule="evenodd" d="M16.8331 6.12469C16.8332 5.23883 17.1435 4.38096 17.71 3.69997C18.2766 3.01899 19.0638 2.55788 19.9348 2.39668C20.8059 2.23549 21.7059 2.38438 22.4787 2.81751C23.2514 3.25064 23.8481 3.94068 24.1652 4.76785C24.4823 5.59502 24.4998 6.50711 24.2146 7.3458C23.9293 8.1845 23.3595 8.89686 22.6039 9.35924C21.8482 9.82162 20.9546 10.0048 20.078 9.87708C19.2014 9.74932 18.3972 9.31867 17.8049 8.65986L14.6351 10.3889L11.0884 12.4154C11.5843 13.2881 11.7143 14.3217 11.4501 15.29L17.8049 18.7562C18.4267 18.0654 19.2804 17.6271 20.2041 17.5243C21.1278 17.4216 22.057 17.6617 22.8153 18.199C23.5736 18.7363 24.1082 19.5334 24.3175 20.4388C24.5268 21.3443 24.3962 22.2951 23.9506 23.1107C23.505 23.9263 22.7754 24.5498 21.9004 24.8629C21.0253 25.1759 20.0658 25.1567 19.204 24.8088C18.3422 24.461 17.6382 23.8087 17.2256 22.9759C16.813 22.1432 16.7207 21.1879 16.9661 20.2915L10.6113 16.8265C10.127 17.3652 9.49848 17.7539 8.8002 17.9465C8.10191 18.1392 7.36304 18.1278 6.67102 17.9137C5.979 17.6996 5.36278 17.2918 4.8953 16.7385C4.42781 16.1851 4.12861 15.5094 4.0331 14.7914C3.9376 14.0733 4.04978 13.3429 4.35638 12.6866C4.66297 12.0303 5.15115 11.4756 5.76315 11.0881C6.37515 10.7005 7.08536 10.4964 7.80973 10.4998C8.53411 10.5033 9.24233 10.7142 9.85061 11.1075L13.7823 8.86053L16.9661 7.12336C16.8776 6.79786 16.8329 6.46201 16.8331 6.12469ZM20.6248 4.08303C20.0833 4.08303 19.564 4.29813 19.1811 4.68102C18.7982 5.0639 18.5831 5.58321 18.5831 6.12469C18.5831 6.66618 18.7982 7.18548 19.1811 7.56837C19.564 7.95126 20.0833 8.16636 20.6248 8.16636C21.1663 8.16636 21.6856 7.95126 22.0685 7.56837C22.4513 7.18548 22.6664 6.66618 22.6664 6.12469C22.6664 5.58321 22.4513 5.0639 22.0685 4.68102C21.6856 4.29813 21.1663 4.08303 20.6248 4.08303ZM7.79145 12.2497C7.24996 12.2497 6.73066 12.4648 6.34777 12.8477C5.96488 13.2306 5.74978 13.7499 5.74978 14.2914C5.74978 14.8328 5.96488 15.3521 6.34777 15.735C6.73066 16.1179 7.24996 16.333 7.79145 16.333C8.33293 16.333 8.85224 16.1179 9.23512 15.735C9.61801 15.3521 9.83311 14.8328 9.83311 14.2914C9.83311 13.7499 9.61801 13.2306 9.23512 12.8477C8.85224 12.4648 8.33293 12.2497 7.79145 12.2497ZM18.5831 21.2914C18.5831 20.7499 18.7982 20.2306 19.1811 19.8477C19.564 19.4648 20.0833 19.2497 20.6248 19.2497C21.1663 19.2497 21.6856 19.4648 22.0685 19.8477C22.4513 20.2306 22.6664 20.7499 22.6664 21.2914C22.6664 21.8328 22.4513 22.3521 22.0685 22.735C21.6856 23.1179 21.1663 23.333 20.6248 23.333C20.0833 23.333 19.564 23.1179 19.1811 22.735C18.7982 22.3521 18.5831 21.8328 18.5831 21.2914Z"/>
</svg>
