<svg width="29" height="28" viewBox="0 0 29 28" fill="none" xmlns="http://www.w3.org/2000/svg">
<path fill-rule="evenodd" clip-rule="evenodd" d="M15.5823 2.63549C15.1917 2.23348 14.5586 2.23348 14.1681 2.63549L8.16806 8.81196C7.77754 9.21397 7.77754 9.86576 8.16806 10.2678C8.55858 10.6698 9.19175 10.6698 9.58227 10.2678L13.8752 5.84862V17.0889C13.8752 17.6574 14.3229 18.1183 14.8752 18.1183C15.4274 18.1183 15.8752 17.6574 15.8752 17.0889V5.84862L20.1681 10.2678C20.5586 10.6698 21.1917 10.6698 21.5822 10.2678C21.9728 9.86576 21.9728 9.21397 21.5822 8.81196L15.5823 2.63549ZM5.2085 18.4614C5.2085 17.8929 4.76078 17.432 4.2085 17.432C3.65621 17.432 3.2085 17.8929 3.2085 18.4614V21.8928C3.2085 23.9774 4.85012 25.6673 6.87516 25.6673H22.8752C24.9002 25.6673 26.5418 23.9774 26.5418 21.8928V18.4614C26.5418 17.8929 26.0941 17.432 25.5418 17.432C24.9896 17.432 24.5418 17.8929 24.5418 18.4614V21.8928C24.5418 22.8404 23.7957 23.6085 22.8752 23.6085H6.87516C5.95468 23.6085 5.2085 22.8404 5.2085 21.8928V18.4614Z" fill="black"/>
</svg>
