<svg width="20" height="20" viewBox="0 0 20 20" xmlns="http://www.w3.org/2000/svg">
<path d="M9.99992 13.2393C10.1679 13.2393 10.3225 13.1721 10.4435 13.0444L15.6585 7.72185C15.7728 7.60089 15.8333 7.45303 15.8333 7.27831C15.8333 6.93556 15.5712 6.66675 15.2217 6.66675C15.0537 6.66675 14.8991 6.73395 14.7849 6.84148L9.99992 11.7339L5.21501 6.84148C5.10078 6.73395 4.95288 6.66675 4.7782 6.66675C4.42872 6.66675 4.16659 6.93556 4.16659 7.27831C4.16659 7.45303 4.22709 7.60089 4.34809 7.72185L9.55639 13.0444C9.68405 13.1721 9.83195 13.2393 9.99992 13.2393Z"/>
</svg>
