<svg width="24" height="24" viewBox="0 0 24 24" xmlns="http://www.w3.org/2000/svg">
<path d="M20.0526 20.5H3.94737C3.72759 20.5 3.5 20.2997 3.5 20V19C3.5 18.7003 3.72759 18.5 3.94737 18.5H20.0526C20.2724 18.5 20.5 18.7003 20.5 19V20C20.5 20.2997 20.2724 20.5 20.0526 20.5ZM3.94737 8.5H20.0526C20.2724 8.5 20.5 8.70033 20.5 9V15C20.5 15.2997 20.2724 15.5 20.0526 15.5H3.94737C3.72759 15.5 3.5 15.2997 3.5 15V9C3.5 8.70033 3.72759 8.5 3.94737 8.5ZM3.5 5V4C3.5 3.70033 3.72759 3.5 3.94737 3.5H20.0526C20.2724 3.5 20.5 3.70033 20.5 4V5C20.5 5.29967 20.2724 5.5 20.0526 5.5H3.94737C3.72759 5.5 3.5 5.29967 3.5 5Z"/>
</svg>
