<svg width="20" height="21" viewBox="0 0 20 21" fill="none" xmlns="http://www.w3.org/2000/svg">
<path fill-rule="evenodd" clip-rule="evenodd" d="M10.2803 1.71967C9.98744 1.42678 9.51256 1.42678 9.21967 1.71967L4.71967 6.21967C4.42678 6.51256 4.42678 6.98744 4.71967 7.28033C5.01256 7.57322 5.48744 7.57322 5.78033 7.28033L9 4.06066V12.25C9 12.6642 9.33579 13 9.75 13C10.1642 13 10.5 12.6642 10.5 12.25V4.06066L13.7197 7.28033C14.0126 7.57322 14.4874 7.57322 14.7803 7.28033C15.0732 6.98744 15.0732 6.51256 14.7803 6.21967L10.2803 1.71967ZM2.5 13.25C2.5 12.8358 2.16421 12.5 1.75 12.5C1.33579 12.5 1 12.8358 1 13.25V15.75C1 17.2688 2.23122 18.5 3.75 18.5H15.75C17.2688 18.5 18.5 17.2688 18.5 15.75V13.25C18.5 12.8358 18.1642 12.5 17.75 12.5C17.3358 12.5 17 12.8358 17 13.25V15.75C17 16.4404 16.4404 17 15.75 17H3.75C3.05964 17 2.5 16.4404 2.5 15.75V13.25Z" />
</svg>
