<svg width="28" height="28" viewBox="0 0 28 28" fill="none" xmlns="http://www.w3.org/2000/svg">
<g clip-path="url(#clip0_1711_22823)">
<path fill-rule="evenodd" clip-rule="evenodd" d="M12.6516 6.3H21.5C21.6105 6.3 21.7 6.38954 21.7 6.5V21.5C21.7 21.6105 21.6105 21.7 21.5 21.7H12.6516V6.3ZM11.3516 6.3H6.5C6.38954 6.3 6.3 6.38954 6.3 6.5V21.5C6.3 21.6105 6.38954 21.7 6.5 21.7H11.3516V6.3ZM5 6.5C5 5.67157 5.67157 5 6.5 5H21.5C22.3284 5 23 5.67157 23 6.5V21.5C23 22.3284 22.3284 23 21.5 23H6.5C5.67157 23 5 22.3284 5 21.5V6.5Z" fill="black"/>
</g>
<defs>
<clipPath id="clip0_1711_22823">
<rect width="18" height="18" fill="white" transform="translate(5 5)"/>
</clipPath>
</defs>
</svg>
