<svg width="26" height="26" viewBox="0 0 26 26" fill="transparent" xmlns="http://www.w3.org/2000/svg">
<path d="M7.65156 0.8H7.15156V1.3V16.7V17.2H7.65156H16.5C16.8866 17.2 17.2 16.8866 17.2 16.5V1.5C17.2 1.11346 16.8867 0.8 16.5 0.8H7.65156ZM6.85156 1.3V0.8H6.35156H1.5C1.1134 0.8 0.8 1.1134 0.8 1.5V16.5C0.8 16.8867 1.11346 17.2 1.5 17.2H6.35156H6.85156V16.7V1.3ZM0.5 1.5C0.5 0.947715 0.947715 0.5 1.5 0.5H16.5C17.0523 0.5 17.5 0.947721 17.5 1.5V16.5C17.5 17.0523 17.0523 17.5 16.5 17.5H1.5C0.947721 17.5 0.5 17.0523 0.5 16.5V1.5Z" />
</svg>
