<svg width="4" height="20" viewBox="0 0 4 20" xmlns="http://www.w3.org/2000/svg">
<path fill-rule="evenodd" clip-rule="evenodd" d="M1.66927 4.9974C0.748796 4.9974 0.00260413 4.2512 0.00260417 3.33073C0.00260421 2.41025 0.748796 1.66406 1.66927 1.66406C2.58974 1.66406 3.33594 2.41026 3.33594 3.33073C3.33594 4.2512 2.58974 4.9974 1.66927 4.9974ZM1.66927 11.6641C0.748795 11.6641 0.00260384 10.9179 0.00260388 9.9974C0.00260392 9.07692 0.748796 8.33073 1.66927 8.33073C2.58974 8.33073 3.33594 9.07692 3.33594 9.9974C3.33594 10.9179 2.58974 11.6641 1.66927 11.6641ZM0.00260359 16.6641C0.00260355 17.5846 0.748795 18.3307 1.66927 18.3307C2.58974 18.3307 3.33594 17.5846 3.33594 16.6641C3.33594 15.7436 2.58974 14.9974 1.66927 14.9974C0.748795 14.9974 0.00260363 15.7436 0.00260359 16.6641Z" />
</svg>
