<svg width="24" height="24" viewBox="0 0 26 23" fill="none" xmlns="http://www.w3.org/2000/svg">
<path d="M0.960732 15.5057C1.68476 16.2146 3.07442 16.38 4.14878 15.3875C4.53414 15.0449 5.2932 14.2296 6.48434 13.0127C12.3233 7.03421 15.92 3.26518 16.5623 3.85594C17.0761 4.32854 15.0909 7.17599 13.1057 9.96437C9.47386 15.0567 6.41427 18.7785 8.7148 21.1061C10.5132 22.9256 13.2458 21.2715 17.625 17.3843C19.9722 15.293 21.6071 13.7452 22.0158 14.1469C22.2728 14.4069 21.6538 15.4348 20.8597 16.8172C19.7387 18.7785 18.2439 20.9997 19.7036 22.4766C20.7196 23.5045 22.6581 23.0556 24.9119 20.7989C25.3791 20.3381 25.4842 19.7828 25.0871 19.3929C24.7251 19.0266 24.2113 19.0857 23.8259 19.4401C22.3662 20.8579 21.2801 21.4723 21.105 21.2715C20.8831 21.0588 21.502 19.9364 22.5764 17.9987C24.0595 15.3166 24.9703 13.5207 23.604 12.1738C21.7706 10.3779 19.6219 12.2801 15.8967 15.6002C12.732 18.4122 11.4357 19.1447 11.1438 18.8257C10.7234 18.3768 11.8912 16.7817 15.3478 11.8902C19.0847 6.62068 21.3035 3.19429 19.2015 1.11482C16.4572 -1.59085 12.767 0.405913 3.62327 9.56265C2.292 10.886 1.46288 11.6894 1.05415 12.1856C-0.00852704 13.4262 0.225029 14.7968 0.960732 15.5057Z"/>
</svg>
