<svg width="339" height="140" viewBox="0 0 339 140" fill="none" xmlns="http://www.w3.org/2000/svg">
<rect width="339" height="140" fill="#EEF3FF"/>
<path fill-rule="evenodd" clip-rule="evenodd" d="M71.0332 68.3265H70.7908C70.8686 68.8383 70.9099 69.3622 70.912 69.8953C70.9142 69.3622 70.9555 68.8383 71.0332 68.3265ZM57.3639 59.6929V58.8922C52.8946 57.6289 49.6196 53.52 49.6196 48.6463C49.6196 42.7665 54.3861 38 60.2659 38C66.038 38 70.7372 42.5935 70.9074 48.3244H70.9167C71.0869 42.5936 75.7861 38.0001 81.5582 38.0001C87.438 38.0001 92.2045 42.7666 92.2045 48.6463C92.2045 53.9771 88.2865 58.3928 83.173 59.1709V59.4141C88.2865 60.1921 92.2045 64.6078 92.2045 69.9387C92.2045 75.8184 87.438 80.5849 81.5582 80.5849C75.693 80.5849 70.9355 75.842 70.912 69.9823C70.8887 75.8421 66.1312 80.5851 60.2659 80.5851C54.3861 80.5851 49.6196 75.8186 49.6196 69.9389C49.6196 65.0651 52.8946 60.9563 57.3639 59.6929Z" fill="#F7F9FB"/>
<path fill-rule="evenodd" clip-rule="evenodd" d="M80.7125 79.2942H80.4695C80.5475 79.8066 80.5889 80.331 80.591 80.8647C80.5931 80.331 80.6345 79.8066 80.7125 79.2942ZM67.0429 70.6624V69.8617C62.5735 68.5984 59.2985 64.4895 59.2985 59.6157C59.2985 53.736 64.065 48.9695 69.9447 48.9695C75.7163 48.9695 80.4151 53.5621 80.5862 59.2921H80.5957C80.7668 53.5621 85.4657 48.9695 91.2372 48.9695C97.1169 48.9695 101.883 53.736 101.883 59.6158C101.883 64.9466 97.9654 69.3623 92.852 70.1403V70.3835C97.9654 71.1616 101.883 75.5773 101.883 80.9081C101.883 86.7879 97.1169 91.5544 91.2372 91.5544C85.372 91.5544 80.6145 86.8114 80.591 80.9517C80.5676 86.8115 75.8101 91.5546 69.9448 91.5546C64.0651 91.5546 59.2986 86.7881 59.2986 80.9083C59.2986 76.0346 62.5735 71.9257 67.0429 70.6624Z" fill="#F7F9FB"/>
<path fill-rule="evenodd" clip-rule="evenodd" d="M59.4139 79.2942H59.1709C59.2489 79.8066 59.2903 80.331 59.2924 80.8647C59.2946 80.331 59.336 79.8066 59.4139 79.2942ZM45.7443 70.6624V69.8617C41.275 68.5983 38 64.4895 38 59.6157C38 53.736 42.7665 48.9695 48.6463 48.9695C54.4178 48.9695 59.1166 53.5621 59.2877 59.2921H59.2972C59.4682 53.5621 64.1671 48.9695 69.9386 48.9695C75.8184 48.9695 80.5848 53.736 80.5848 59.6158C80.5848 64.9466 76.6668 69.3623 71.5534 70.1403V70.3835C76.6668 71.1616 80.5848 75.5773 80.5848 80.9081C80.5848 86.7879 75.8184 91.5544 69.9386 91.5544C64.0734 91.5544 59.3159 86.8114 59.2924 80.9517C59.269 86.8115 54.5116 91.5546 48.6463 91.5546C42.7665 91.5546 38 86.7881 38 80.9083C38 76.0346 41.275 71.9257 45.7443 70.6624Z" fill="#F7F9FB"/>
<path fill-rule="evenodd" clip-rule="evenodd" d="M71.0333 89.617H70.7908C70.8686 90.129 70.9099 90.6529 70.912 91.1861C70.9142 90.6529 70.9555 90.129 71.0333 89.617ZM57.3639 80.9837V80.183C52.8946 78.9196 49.6196 74.8108 49.6196 69.937C49.6196 64.0573 54.3861 59.2908 60.2659 59.2908C66.0379 59.2908 70.7371 63.8842 70.9074 69.615H70.9167C71.087 63.8842 75.7862 59.2909 81.5582 59.2909C87.438 59.2909 92.2045 64.0573 92.2045 69.9371C92.2045 75.2679 88.2865 79.6836 83.173 80.4617V80.7049C88.2865 81.4829 92.2045 85.8986 92.2045 91.2295C92.2045 97.1092 87.438 101.876 81.5582 101.876C75.693 101.876 70.9355 97.1328 70.912 91.2731C70.8887 97.1329 66.1312 101.876 60.2659 101.876C54.3861 101.876 49.6196 97.1094 49.6196 91.2297C49.6196 86.3559 52.8946 82.2471 57.3639 80.9837Z" fill="#F7F9FB"/>
<path fill-rule="evenodd" clip-rule="evenodd" d="M171.033 68.3264H170.791C170.869 68.8383 170.91 69.3621 170.912 69.8952C170.914 69.3621 170.955 68.8383 171.033 68.3264ZM157.364 59.6929V58.8922C152.895 57.6288 149.62 53.52 149.62 48.6462C149.62 42.7664 154.386 38 160.266 38C166.038 38 170.737 42.5935 170.907 48.3244H170.917C171.087 42.5935 175.786 38 181.558 38C187.438 38 192.204 42.7665 192.204 48.6463C192.204 53.9771 188.286 58.3928 183.173 59.1709V59.414C188.286 60.1921 192.204 64.6078 192.204 69.9386C192.204 75.8184 187.438 80.5849 181.558 80.5849C175.693 80.5849 170.936 75.8419 170.912 69.9822C170.889 75.842 166.131 80.5851 160.266 80.5851C154.386 80.5851 149.62 75.8186 149.62 69.9388C149.62 65.0651 152.895 60.9562 157.364 59.6929Z" fill="#F7F9FB"/>
<path fill-rule="evenodd" clip-rule="evenodd" d="M180.712 79.2942H180.47C180.547 79.8066 180.589 80.331 180.591 80.8647C180.593 80.331 180.635 79.8066 180.712 79.2942ZM167.043 70.6624V69.8617C162.573 68.5984 159.298 64.4895 159.298 59.6157C159.298 53.736 164.065 48.9695 169.945 48.9695C175.716 48.9695 180.415 53.5621 180.586 59.2921H180.596C180.767 53.5621 185.466 48.9695 191.237 48.9695C197.117 48.9695 201.883 53.736 201.883 59.6158C201.883 64.9466 197.965 69.3623 192.852 70.1403V70.3835C197.965 71.1616 201.883 75.5773 201.883 80.9081C201.883 86.7879 197.117 91.5544 191.237 91.5544C185.372 91.5544 180.615 86.8114 180.591 80.9517C180.568 86.8115 175.81 91.5546 169.945 91.5546C164.065 91.5546 159.299 86.7881 159.299 80.9083C159.299 76.0346 162.574 71.9257 167.043 70.6624Z" fill="#F7F9FB"/>
<path fill-rule="evenodd" clip-rule="evenodd" d="M159.414 79.2942H159.171C159.249 79.8066 159.29 80.331 159.292 80.8647C159.295 80.331 159.336 79.8066 159.414 79.2942ZM145.744 70.6624V69.8617C141.275 68.5983 138 64.4895 138 59.6157C138 53.736 142.766 48.9695 148.646 48.9695C154.418 48.9695 159.117 53.5621 159.288 59.2921H159.297C159.468 53.5621 164.167 48.9695 169.939 48.9695C175.818 48.9695 180.585 53.736 180.585 59.6158C180.585 64.9466 176.667 69.3623 171.553 70.1403V70.3835C176.667 71.1616 180.585 75.5773 180.585 80.9081C180.585 86.7879 175.818 91.5544 169.939 91.5544C164.073 91.5544 159.316 86.8114 159.292 80.9517C159.269 86.8115 154.512 91.5546 148.646 91.5546C142.766 91.5546 138 86.7881 138 80.9083C138 76.0346 141.275 71.9257 145.744 70.6624Z" fill="#F7F9FB"/>
<path fill-rule="evenodd" clip-rule="evenodd" d="M171.033 89.617H170.791C170.869 90.129 170.91 90.6529 170.912 91.1861C170.914 90.6529 170.955 90.129 171.033 89.617ZM157.364 80.9837V80.183C152.895 78.9196 149.62 74.8108 149.62 69.937C149.62 64.0573 154.386 59.2908 160.266 59.2908C166.038 59.2908 170.737 63.8842 170.907 69.615H170.917C171.087 63.8842 175.786 59.2909 181.558 59.2909C187.438 59.2909 192.204 64.0573 192.204 69.9371C192.204 75.2679 188.286 79.6836 183.173 80.4617V80.7049C188.286 81.4829 192.204 85.8986 192.204 91.2295C192.204 97.1092 187.438 101.876 181.558 101.876C175.693 101.876 170.936 97.1328 170.912 91.2731C170.889 97.1329 166.131 101.876 160.266 101.876C154.386 101.876 149.62 97.1094 149.62 91.2297C149.62 86.3559 152.895 82.2471 157.364 80.9837Z" fill="#F7F9FB"/>
<path fill-rule="evenodd" clip-rule="evenodd" d="M271.033 68.3264H270.791C270.869 68.8383 270.91 69.3621 270.912 69.8952C270.914 69.3621 270.955 68.8383 271.033 68.3264ZM257.364 59.6929V58.8922C252.895 57.6288 249.62 53.52 249.62 48.6462C249.62 42.7664 254.386 38 260.266 38C266.038 38 270.737 42.5935 270.907 48.3244H270.917C271.087 42.5935 275.786 38 281.558 38C287.438 38 292.204 42.7665 292.204 48.6463C292.204 53.9771 288.286 58.3928 283.173 59.1709V59.414C288.286 60.1921 292.204 64.6078 292.204 69.9386C292.204 75.8184 287.438 80.5849 281.558 80.5849C275.693 80.5849 270.936 75.8419 270.912 69.9822C270.889 75.842 266.131 80.5851 260.266 80.5851C254.386 80.5851 249.62 75.8186 249.62 69.9388C249.62 65.0651 252.895 60.9562 257.364 59.6929Z" fill="#F7F9FB"/>
<path fill-rule="evenodd" clip-rule="evenodd" d="M280.712 79.2942H280.47C280.547 79.8066 280.589 80.331 280.591 80.8647C280.593 80.331 280.635 79.8066 280.712 79.2942ZM267.043 70.6624V69.8617C262.573 68.5984 259.298 64.4895 259.298 59.6157C259.298 53.736 264.065 48.9695 269.945 48.9695C275.716 48.9695 280.415 53.5621 280.586 59.2921H280.596C280.767 53.5621 285.466 48.9695 291.237 48.9695C297.117 48.9695 301.883 53.736 301.883 59.6158C301.883 64.9466 297.965 69.3623 292.852 70.1403V70.3835C297.965 71.1616 301.883 75.5773 301.883 80.9081C301.883 86.7879 297.117 91.5544 291.237 91.5544C285.372 91.5544 280.615 86.8114 280.591 80.9517C280.568 86.8115 275.81 91.5546 269.945 91.5546C264.065 91.5546 259.299 86.7881 259.299 80.9083C259.299 76.0346 262.574 71.9257 267.043 70.6624Z" fill="#F7F9FB"/>
<path fill-rule="evenodd" clip-rule="evenodd" d="M259.414 79.2942H259.171C259.249 79.8066 259.29 80.331 259.292 80.8647C259.295 80.331 259.336 79.8066 259.414 79.2942ZM245.744 70.6624V69.8617C241.275 68.5983 238 64.4895 238 59.6157C238 53.736 242.766 48.9695 248.646 48.9695C254.418 48.9695 259.117 53.5621 259.288 59.2921H259.297C259.468 53.5621 264.167 48.9695 269.939 48.9695C275.818 48.9695 280.585 53.736 280.585 59.6158C280.585 64.9466 276.667 69.3623 271.553 70.1403V70.3835C276.667 71.1616 280.585 75.5773 280.585 80.9081C280.585 86.7879 275.818 91.5544 269.939 91.5544C264.073 91.5544 259.316 86.8114 259.292 80.9517C259.269 86.8115 254.512 91.5546 248.646 91.5546C242.766 91.5546 238 86.7881 238 80.9083C238 76.0346 241.275 71.9257 245.744 70.6624Z" fill="#F7F9FB"/>
<path fill-rule="evenodd" clip-rule="evenodd" d="M271.033 89.617H270.791C270.869 90.129 270.91 90.6529 270.912 91.1861C270.914 90.6529 270.955 90.129 271.033 89.617ZM257.364 80.9837V80.183C252.895 78.9196 249.62 74.8108 249.62 69.937C249.62 64.0573 254.386 59.2908 260.266 59.2908C266.038 59.2908 270.737 63.8842 270.907 69.615H270.917C271.087 63.8842 275.786 59.2909 281.558 59.2909C287.438 59.2909 292.204 64.0573 292.204 69.9371C292.204 75.2679 288.286 79.6836 283.173 80.4617V80.7049C288.286 81.4829 292.204 85.8986 292.204 91.2295C292.204 97.1092 287.438 101.876 281.558 101.876C275.693 101.876 270.936 97.1328 270.912 91.2731C270.889 97.1329 266.131 101.876 260.266 101.876C254.386 101.876 249.62 97.1094 249.62 91.2297C249.62 86.3559 252.895 82.2471 257.364 80.9837Z" fill="#F7F9FB"/>
</svg>
