<svg width="76" height="76" viewBox="0 0 76 76" fill="none" xmlns="http://www.w3.org/2000/svg">
<rect width="76" height="76" fill="#E9F0FF"/>
<path fill-rule="evenodd" clip-rule="evenodd" d="M38.8574 36.7386H38.6676C38.7285 37.1394 38.7609 37.5495 38.7626 37.967C38.7642 37.5495 38.7965 37.1394 38.8574 36.7386ZM28.1575 29.9808V29.3538C24.659 28.3649 22.0955 25.1486 22.0955 21.3336C22.0955 16.7311 25.8266 13 30.4291 13C34.9473 13 38.6256 16.5956 38.7589 21.0816H38.7662C38.8995 16.5957 42.5779 13 47.0961 13C51.6986 13 55.4296 16.7311 55.4296 21.3336C55.4296 25.5064 52.3627 28.9629 48.3601 29.5719V29.7623C52.3627 30.3713 55.4296 33.8278 55.4296 38.0006C55.4296 42.6031 51.6986 46.3342 47.0961 46.3342C42.5049 46.3342 38.7809 42.6215 38.7626 38.0347C38.7444 42.6217 35.0203 46.3346 30.4291 46.3346C25.8266 46.3346 22.0955 42.6035 22.0955 38.001C22.0955 34.186 24.659 30.9697 28.1575 29.9808Z" fill="#F7F9FB"/>
<path fill-rule="evenodd" clip-rule="evenodd" d="M46.2439 45.324H46.4341C46.373 45.7253 46.3406 46.1359 46.339 46.5539C46.3373 46.1359 46.3049 45.7253 46.2439 45.324ZM35.7339 38.5673C32.2354 39.5562 29.6719 42.7725 29.6719 46.5875C29.6719 51.19 33.403 54.921 38.0055 54.921C42.5967 54.921 46.3208 51.2081 46.339 46.6211C46.3571 51.2081 50.0812 54.921 54.6725 54.921C59.275 54.921 63.006 51.19 63.006 46.5875C63.006 42.4147 59.9391 38.9582 55.9365 38.3492V38.1588C59.9391 37.5498 63.006 34.0933 63.006 29.9205C63.006 25.318 59.275 21.5869 54.6725 21.5869C50.1548 21.5869 46.4767 25.1818 46.3427 29.667H46.3352C46.2011 25.1818 42.5231 21.587 38.0054 21.587C33.4029 21.587 29.6718 25.3181 29.6718 29.9206C29.6718 33.7356 32.2354 36.9519 35.7339 37.9408V38.5673Z" fill="#F7F9FB"/>
<path fill-rule="evenodd" clip-rule="evenodd" d="M29.572 45.324H29.7622C29.7011 45.7252 29.6687 46.1358 29.6671 46.5536C29.6654 46.1358 29.633 45.7252 29.572 45.324ZM19.062 38.5673C15.5635 39.5562 13 42.7724 13 46.5875C13 51.19 16.7311 54.921 21.3336 54.921C25.9248 54.921 29.6488 51.2083 29.6671 46.6213C29.6853 51.2083 33.4094 54.921 38.0006 54.921C42.6031 54.921 46.3341 51.19 46.3341 46.5875C46.3341 42.4147 43.2672 38.9582 39.2646 38.3492V38.1588C43.2672 37.5498 46.3341 34.0933 46.3341 29.9205C46.3341 25.318 42.6031 21.5869 38.0006 21.5869C33.4829 21.5869 29.8048 25.1818 29.6708 29.667H29.6633C29.5293 25.1818 25.8512 21.587 21.3336 21.587C16.7311 21.587 13 25.3181 13 29.9206C13 33.7356 15.5635 36.9519 19.062 37.9408V38.5673Z" fill="#F7F9FB"/>
<path fill-rule="evenodd" clip-rule="evenodd" d="M38.6676 53.4041H38.8575C38.7966 53.805 38.7642 54.2152 38.7626 54.6327C38.7609 54.2152 38.7286 53.805 38.6676 53.4041ZM28.1575 46.6461C24.659 47.635 22.0955 50.8513 22.0955 54.6663C22.0955 59.2688 25.8266 62.9999 30.4291 62.9999C35.0203 62.9999 38.7444 59.287 38.7626 54.7C38.7807 59.287 42.5048 62.9999 47.0961 62.9999C51.6986 62.9999 55.4296 59.2688 55.4296 54.6663C55.4296 50.4935 52.3627 47.0371 48.36 46.428V46.2377C52.3627 45.6286 55.4296 42.1721 55.4296 37.9993C55.4296 33.3968 51.6986 29.6658 47.0961 29.6658C42.5779 29.6658 38.8996 33.2613 38.7662 37.7471H38.7589C38.6254 33.2614 34.9471 29.666 30.4291 29.666C25.8266 29.666 22.0955 33.397 22.0955 37.9995C22.0955 41.8146 24.659 45.0308 28.1575 46.0197V46.6461Z" fill="#F7F9FB"/>
</svg>
