<svg width="20" height="20" viewBox="0 0 20 20" fill="none" xmlns="http://www.w3.org/2000/svg">
<g clip-path="url(#clip0_2082_15413)">
<path fill-rule="evenodd" clip-rule="evenodd" d="M9.99984 18.3327C14.6022 18.3327 18.3332 14.6017 18.3332 9.99935C18.3332 5.39697 14.6022 1.66602 9.99984 1.66602C5.39746 1.66602 1.6665 5.39697 1.6665 9.99935C1.6665 14.6017 5.39746 18.3327 9.99984 18.3327ZM14.2164 6.71796C14.3563 6.85793 14.435 7.04775 14.435 7.24567C14.435 7.44358 14.3563 7.6334 14.2164 7.77337L8.70898 13.2808C8.569 13.4208 8.37918 13.4993 8.18125 13.4993C7.98334 13.4993 7.79352 13.4208 7.65355 13.2808L5.0427 10.67C4.90673 10.5292 4.83152 10.3407 4.83322 10.1449C4.83492 9.94926 4.91342 9.76205 5.0518 9.62367C5.1902 9.48527 5.3774 9.40677 5.5731 9.40507C5.7688 9.40337 5.95735 9.47861 6.09812 9.61457L6.1002 9.61658L8.18125 11.6977L13.161 6.71794C13.3009 6.57802 13.4908 6.49939 13.6887 6.49939C13.8866 6.49939 14.0765 6.57803 14.2164 6.71796Z" />
</g>
<defs>
<clipPath id="clip0_2082_15413">
<rect width="16.6667" height="16.6667" fill="white" transform="translate(1.6665 1.66602)"/>
</clipPath>
</defs>
</svg>
