<svg width="20" height="21" viewBox="0 0 20 21" xmlns="http://www.w3.org/2000/svg">
<path d="M16.6667 5.49935H13.3333V4.66602C13.3333 4.00297 13.0699 3.36709 12.6011 2.89825C12.1323 2.42941 11.4964 2.16602 10.8333 2.16602H9.16667C8.50363 2.16602 7.86774 2.42941 7.3989 2.89825C6.93006 3.36709 6.66667 4.00297 6.66667 4.66602V5.49935H3.33333C3.11232 5.49935 2.90036 5.58715 2.74408 5.74343C2.5878 5.89971 2.5 6.11167 2.5 6.33268C2.5 6.5537 2.5878 6.76566 2.74408 6.92194C2.90036 7.07822 3.11232 7.16602 3.33333 7.16602H4.16667V16.3327C4.16667 16.9957 4.43006 17.6316 4.8989 18.1005C5.36774 18.5693 6.00363 18.8327 6.66667 18.8327H13.3333C13.9964 18.8327 14.6323 18.5693 15.1011 18.1005C15.5699 17.6316 15.8333 16.9957 15.8333 16.3327V7.16602H16.6667C16.8877 7.16602 17.0996 7.07822 17.2559 6.92194C17.4122 6.76566 17.5 6.5537 17.5 6.33268C17.5 6.11167 17.4122 5.89971 17.2559 5.74343C17.0996 5.58715 16.8877 5.49935 16.6667 5.49935ZM8.33333 4.66602C8.33333 4.445 8.42113 4.23304 8.57741 4.07676C8.73369 3.92048 8.94565 3.83268 9.16667 3.83268H10.8333C11.0543 3.83268 11.2663 3.92048 11.4226 4.07676C11.5789 4.23304 11.6667 4.445 11.6667 4.66602V5.49935H8.33333V4.66602ZM14.1667 16.3327C14.1667 16.5537 14.0789 16.7657 13.9226 16.9219C13.7663 17.0782 13.5543 17.166 13.3333 17.166H6.66667C6.44565 17.166 6.23369 17.0782 6.07741 16.9219C5.92113 16.7657 5.83333 16.5537 5.83333 16.3327V7.16602H14.1667V16.3327Z" />
</svg>
