<svg width="20" height="21" viewBox="0 0 20 21" fill="none" xmlns="http://www.w3.org/2000/svg">
<path fill-rule="evenodd" clip-rule="evenodd" d="M14.4284 4.46934C14.2598 4.39951 14.0791 4.36359 13.8966 4.36364C13.7141 4.36368 13.5335 4.39969 13.3649 4.46961C13.1964 4.53953 13.0433 4.64198 12.9143 4.77111L12.315 5.37122L15.132 8.18817L15.7323 7.58831C15.9925 7.32791 16.139 6.97461 16.139 6.60641C16.139 6.23812 15.9927 5.88492 15.7323 5.6245L14.8791 4.7706C14.7501 4.64154 14.597 4.53916 14.4284 4.46934ZM14.1676 9.15234L11.3514 6.33606L4.75311 12.9416L7.57441 15.7483L14.1676 9.15234ZM6.48275 16.5857L3.91522 14.0315C3.88128 14.1525 3.86364 14.2784 3.86364 14.406V16.6364H6.11236C6.23865 16.6363 6.36316 16.6189 6.48275 16.5857ZM8.05797 17.1934C8.05796 17.1934 8.05798 17.1934 8.05797 17.1934C7.54229 17.7093 6.84286 17.9995 6.11339 18H3.18182C2.80526 18 2.5 17.6947 2.5 17.3182V14.406C2.5 13.6767 2.78998 12.9769 3.30549 12.4613C3.30541 12.4614 3.30558 12.4612 3.30549 12.4613L10.8495 4.90902C10.8557 4.90226 10.8621 4.89561 10.8686 4.88906C10.875 4.88272 10.8814 4.87652 10.888 4.87047L11.9494 3.80761C12.2049 3.55168 12.5084 3.34862 12.8425 3.21004C13.1765 3.07147 13.5345 3.00009 13.8963 3C14.2579 2.99991 14.6161 3.0711 14.9502 3.2095C15.2844 3.3479 15.5879 3.5508 15.8436 3.8066L16.6965 4.66028C17.2126 5.17643 17.5026 5.87646 17.5026 6.60641C17.5026 7.33635 17.2126 8.03638 16.6965 8.55254L8.05797 17.1934Z"/>
</svg>
