<svg width="20" height="20" viewBox="0 0 20 20" fill="none" xmlns="http://www.w3.org/2000/svg">
<path fill-rule="evenodd" clip-rule="evenodd" d="M9.99984 7.87814C9.75873 7.87814 9.5275 7.78236 9.35701 7.61187C9.18653 7.44138 9.09075 7.21015 9.09075 6.96905C9.09075 6.72794 9.18653 6.49671 9.35701 6.32622C9.5275 6.15573 9.75873 6.05996 9.99984 6.05996C10.2409 6.05996 10.4722 6.15573 10.6427 6.32622C10.8131 6.49671 10.9089 6.72794 10.9089 6.96905C10.9089 7.21015 10.8131 7.44138 10.6427 7.61187C10.4722 7.78236 10.2409 7.87814 9.99984 7.87814ZM10.7574 13.5107C10.7574 13.7116 10.6776 13.9043 10.5355 14.0464C10.3935 14.1885 10.2008 14.2683 9.99984 14.2683C9.79892 14.2683 9.60622 14.1885 9.46415 14.0464C9.32208 13.9043 9.24226 13.7116 9.24226 13.5107V9.72283C9.24226 9.52191 9.32208 9.32922 9.46415 9.18715C9.60622 9.04507 9.79892 8.96526 9.99984 8.96526C10.2008 8.96526 10.3935 9.04507 10.5355 9.18715C10.6776 9.32922 10.7574 9.52191 10.7574 9.72283V13.5107ZM9.99984 1.66602C5.39756 1.66602 1.6665 5.39708 1.6665 9.99935C1.6665 14.6016 5.39756 18.3327 9.99984 18.3327C14.6021 18.3327 18.3332 14.6016 18.3332 9.99935C18.3332 5.39708 14.6021 1.66602 9.99984 1.66602Z" />
</svg>
