<svg width="20" height="20" viewBox="0 0 20 20" xmlns="http://www.w3.org/2000/svg">
<path fill-rule="evenodd" clip-rule="evenodd" d="M18.3336 9.99984C18.3336 14.6022 14.6026 18.3332 10.0003 18.3332C5.39795 18.3332 1.66699 14.6022 1.66699 9.99984C1.66699 5.39746 5.39795 1.6665 10.0003 1.6665C14.6026 1.6665 18.3336 5.39746 18.3336 9.99984ZM5.20865 9.99984C5.20865 9.65466 5.48848 9.37484 5.83366 9.37484H9.37532V5.83317C9.37532 5.488 9.65515 5.20817 10.0003 5.20817C10.3454 5.20817 10.6253 5.488 10.6253 5.83317V9.37484H14.1669C14.5121 9.37484 14.7919 9.65466 14.7919 9.99984C14.7919 10.345 14.5121 10.6248 14.1669 10.6248H10.6253V14.1665C10.6253 14.5117 10.3454 14.7915 10.0003 14.7915C9.65515 14.7915 9.37532 14.5117 9.37532 14.1665V10.6248H5.83366C5.48848 10.6248 5.20865 10.345 5.20865 9.99984Z" />
<path d="M9.87532 10.6248V10.1248H9.37532H5.83366C5.76458 10.1248 5.70865 10.0688 5.70865 9.99984C5.70865 9.93082 5.76461 9.87484 5.83366 9.87484H9.37532H9.87532V9.37484V5.83317C9.87532 5.76416 9.93128 5.70817 10.0003 5.70817C10.0693 5.70817 10.1253 5.76418 10.1253 5.83317V9.37484V9.87484H10.6253H14.1669C14.236 9.87484 14.2919 9.9308 14.2919 9.99984C14.2919 10.0688 14.236 10.1248 14.1669 10.1248H10.6253H10.1253V10.6248V14.1665C10.1253 14.2355 10.0694 14.2915 10.0003 14.2915C9.93127 14.2915 9.87532 14.2355 9.87532 14.1665V10.6248Z"/>
</svg>
