<svg width="20" height="20" viewBox="0 0 20 20" fill="none" xmlns="http://www.w3.org/2000/svg">
<path fill-rule="evenodd" clip-rule="evenodd" d="M18.3334 9.99984C18.3334 14.6022 14.6024 18.3332 10.0001 18.3332C5.39771 18.3332 1.66675 14.6022 1.66675 9.99984C1.66675 5.39746 5.39771 1.6665 10.0001 1.6665C14.6024 1.6665 18.3334 5.39746 18.3334 9.99984ZM5.20841 9.99984C5.20841 9.65466 5.48824 9.37484 5.83342 9.37484H9.37508V5.83317C9.37508 5.488 9.65491 5.20817 10.0001 5.20817C10.3452 5.20817 10.6251 5.488 10.6251 5.83317V9.37484H14.1667C14.5119 9.37484 14.7917 9.65466 14.7917 9.99984C14.7917 10.345 14.5119 10.6248 14.1667 10.6248H10.6251V14.1665C10.6251 14.5117 10.3452 14.7915 10.0001 14.7915C9.65491 14.7915 9.37508 14.5117 9.37508 14.1665V10.6248H5.83342C5.48824 10.6248 5.20841 10.345 5.20841 9.99984Z" fill="#6D96FF"/>
</svg>
