<svg width="15" height="20" viewBox="0 0 15 20" fill="none" xmlns="http://www.w3.org/2000/svg">
<path fill-rule="evenodd" clip-rule="evenodd" d="M3.90047 4.5C3.6793 4.5 3.5 4.6793 3.5 4.90047V15.3105L7.11785 13.2754L7.11787 13.2754C7.6051 13.0014 8.2 13.0014 8.68723 13.2754L8.68725 13.2754L12.3051 15.3105V4.90047C12.3051 4.67929 12.1258 4.5 11.9046 4.5H3.90047ZM2.5 4.90047C2.5 4.12701 3.12701 3.5 3.90047 3.5H11.9046C12.6781 3.5 13.3051 4.12702 13.3051 4.90047V15.7663C13.3051 16.3273 12.7009 16.6804 12.2121 16.4055L12.2121 16.4055L8.19701 14.147C8.197 14.147 8.19699 14.147 8.19698 14.147C8.01416 14.0442 7.79094 14.0442 7.60812 14.147C7.60811 14.147 7.6081 14.147 7.60809 14.147L3.59304 16.4055L3.59299 16.4055C3.10418 16.6804 2.5 16.3273 2.5 15.7663V4.90047Z" fill="#A8B0BA"/>
</svg>
