<svg width="24" height="24" viewBox="0 0 24 24" xmlns="http://www.w3.org/2000/svg">
<path d="M4.26113 19.7388C4.61433 20.082 5.19963 20.082 5.54274 19.7388L12.0013 13.2803L18.4597 19.7388C18.8029 20.082 19.3983 20.0921 19.7414 19.7388C20.0845 19.3857 20.0845 18.8104 19.7414 18.4674L13.2829 11.9987L19.7414 5.54022C20.0845 5.19711 20.0946 4.61181 19.7414 4.2687C19.3881 3.9155 18.8029 3.9155 18.4597 4.2687L12.0013 10.7272L5.54274 4.2687C5.19963 3.9155 4.60424 3.90541 4.26113 4.2687C3.91802 4.6219 3.91802 5.19711 4.26113 5.54022L10.7196 11.9987L4.26113 18.4674C3.91802 18.8104 3.90793 19.3958 4.26113 19.7388Z"/>
</svg>
