<svg width="66" height="22" viewBox="0 0 66 22" xmlns="http://www.w3.org/2000/svg">
<path fill-rule="evenodd" clip-rule="evenodd" d="M35.146 2.00546C35.5034 2.00546 35.7953 2.2892 35.8062 2.6466C35.8171 2.29193 36.109 2.00546 36.4664 2.00546C36.8239 2.00546 37.1267 2.30011 37.1267 2.6657V2.68752C37.4623 2.71754 37.7269 3.00128 37.7269 3.34504C37.7269 3.6888 37.4841 3.95071 37.1676 3.9971V4.01347C37.4841 4.06257 37.7269 4.3354 37.7269 4.66552C37.7269 4.99565 37.4623 5.29303 37.1267 5.32304C37.1185 5.68045 36.8266 5.96691 36.4664 5.96691C36.1063 5.96691 35.8144 5.68045 35.8062 5.32304C35.798 5.68045 35.5061 5.96691 35.146 5.96691C34.7858 5.96691 34.4912 5.67772 34.4857 5.31758H34.4312C34.0656 5.31758 33.7709 5.02293 33.7709 4.65734C33.7709 4.32722 34.0137 4.05166 34.3302 4.00528V3.98891C34.0137 3.9398 33.7709 3.66697 33.7709 3.33685C33.7709 2.97126 34.0656 2.67661 34.4312 2.67661H34.4857V2.66024C34.4857 2.29465 34.7804 2 35.146 2V2.00546ZM61.6784 18.8771L57.215 13.2732V18.8771H53.8919V2.1937H57.215V11.3007L61.632 5.72134H65.9536L60.1588 12.321L66 18.8743H61.6784V18.8771ZM15.707 11.7754C16.3072 12.5339 16.6101 13.4069 16.6101 14.3864C16.6101 15.2731 16.3918 16.0533 15.958 16.7245C15.5215 17.3984 14.894 17.9249 14.0701 18.3042C13.2461 18.6834 12.2721 18.8744 11.1481 18.8744H4V2.30284H10.8398C11.9638 2.30284 12.9324 2.48563 13.7481 2.84849C14.5639 3.21408 15.1805 3.71881 15.6006 4.36814C16.0208 5.01747 16.2308 5.75411 16.2308 6.57532C16.2308 7.54113 15.9744 8.3487 15.4587 8.99802C14.9431 9.64735 14.2583 10.1057 13.4044 10.3758C14.3374 10.5504 15.1068 11.0169 15.707 11.7754ZM7.32304 9.13989H10.3623C11.1535 9.13989 11.7619 8.96256 12.1903 8.60515C12.6186 8.25048 12.8314 7.73756 12.8314 7.07459C12.8314 6.41162 12.6186 5.89598 12.1903 5.53039C11.7619 5.16753 11.1535 4.98474 10.3623 4.98474H7.32304V9.13989ZM12.5613 15.5977C13.0115 15.2185 13.2379 14.681 13.2379 13.9826C13.2379 13.2841 13.0006 12.7112 12.5259 12.3074C12.0511 11.9036 11.41 11.7017 10.6024 11.7017H7.32576V16.1652H10.6734C11.4809 16.1652 12.1112 15.9742 12.5613 15.595V15.5977ZM26.8656 16.2416H32.3277V18.8771H23.5426V2.30284H26.8656V16.2416ZM51.9767 11.1588C51.9767 9.38541 51.4938 8.00491 50.528 7.01454H50.5307C49.5649 6.02418 48.2962 5.53036 46.7302 5.53036C45.9063 5.53036 45.1505 5.69133 44.463 6.016C43.7755 6.34066 43.208 6.7881 42.766 7.35831V5.72134H39.443V18.8771H42.766V11.6117C42.766 10.5668 43.0307 9.76191 43.5627 9.19989C44.092 8.63787 44.8341 8.35685 45.7344 8.35685C46.6347 8.35685 47.3495 8.63787 47.8706 9.19989C48.3917 9.76464 48.6536 10.5668 48.6536 11.6117V18.8771H51.9767V11.1588ZM37.4132 18.8771V7.20552H34.0901V18.8771H37.4132ZM19.824 15.7532C19.8131 15.3958 19.5211 15.1121 19.1637 15.1121V15.1066C18.7982 15.1066 18.5035 15.4013 18.5035 15.7669V15.7832H18.4489C18.0833 15.7832 17.7887 16.0779 17.7887 16.4435C17.7887 16.7736 18.0315 17.0464 18.348 17.0955V17.1119C18.0315 17.1583 17.7887 17.4338 17.7887 17.764C17.7887 18.1296 18.0833 18.4242 18.4489 18.4242H18.5035C18.509 18.7843 18.8036 19.0735 19.1637 19.0735C19.5239 19.0735 19.8158 18.7871 19.824 18.4297C19.8322 18.7871 20.1241 19.0735 20.4842 19.0735C20.8444 19.0735 21.1363 18.7871 21.1445 18.4297C21.48 18.3997 21.7447 18.1023 21.7447 17.7722C21.7447 17.442 21.5019 17.1692 21.1854 17.1201V17.1037C21.5019 17.0573 21.7447 16.7954 21.7447 16.4517C21.7447 16.1079 21.48 15.8242 21.1445 15.7942V15.7723C21.1445 15.4067 20.8416 15.1121 20.4842 15.1121C20.1268 15.1121 19.8349 15.3986 19.824 15.7532Z"/>
</svg>
