<svg width="53" height="20" viewBox="0 0 53 20" fill="none" xmlns="http://www.w3.org/2000/svg">
<path fill-rule="evenodd" clip-rule="evenodd" d="M24.0039 16.7187C24.0871 16.7187 24.1545 16.6501 24.1545 16.5654V2.15333C24.1545 2.06865 24.0871 2 24.0039 2H21.5067C21.4235 2 21.356 2.06865 21.356 2.15333V16.5654C21.356 16.6501 21.4235 16.7187 21.5067 16.7187H24.0039ZM28.411 16.5654C28.411 16.6501 28.3435 16.7187 28.2603 16.7187H25.7631C25.6799 16.7187 25.6124 16.6501 25.6124 16.5654V6.09584C25.6124 6.01115 25.6799 5.94251 25.7631 5.94251H28.2603C28.3435 5.94251 28.411 6.01115 28.411 6.09584V16.5654ZM28.411 4.49692C28.411 4.58159 28.3435 4.65024 28.2603 4.65024H25.7631C25.6799 4.65024 25.6124 4.58159 25.6124 4.49692V2.15333C25.6124 2.06865 25.6799 2 25.7631 2H28.2603C28.3435 2 28.411 2.06865 28.411 2.15333V4.49692ZM50.349 16.7187C50.462 16.7187 50.5349 16.5969 50.4829 16.4949L47.1776 10.0018C47.1487 9.94477 47.1576 9.87542 47.2001 9.82798L50.453 6.19913C50.5412 6.10068 50.4725 5.94251 50.3415 5.94251H47.3275C47.2837 5.94251 47.2421 5.96182 47.2135 5.99544L44.0343 9.72757C43.9429 9.83486 43.7696 9.76913 43.7696 9.62717V2.15333C43.7696 2.06865 43.7021 2 43.6188 2H41.099C41.0158 2 40.9483 2.06865 40.9483 2.15333V16.5654C40.9483 16.6501 41.0158 16.7187 41.099 16.7187H43.6188C43.7021 16.7187 43.7696 16.6501 43.7696 16.5654V13.364C43.7696 13.3242 43.7849 13.2859 43.8121 13.2573L44.977 12.035C45.0497 11.9587 45.1748 11.9789 45.2207 12.0744L47.4111 16.6327C47.4364 16.6853 47.4889 16.7187 47.5466 16.7187H50.349ZM39.387 16.7193C39.4704 16.7193 39.538 16.6505 39.538 16.5658V9.24429C39.538 6.89878 38.0508 5.6493 36.0249 5.6493C34.5776 5.6493 33.5819 6.12443 32.9187 7.0074C32.8237 7.13372 32.5979 7.06974 32.5979 6.91076V6.08771C32.5979 6.00297 32.5304 5.93426 32.4471 5.93426H30.0763C29.9929 5.93426 29.9254 6.00297 29.9254 6.08771V16.5658C29.9254 16.6505 29.9929 16.7193 30.0763 16.7193H32.5764C32.6597 16.7193 32.7273 16.6505 32.7273 16.5658V10.5376C32.7273 8.89355 33.4385 8.06057 34.9041 8.06057C36.2404 8.06057 36.7145 8.5209 36.7145 10.1869V16.5658C36.7145 16.6505 36.7821 16.7193 36.8654 16.7193H39.387ZM20.0736 16.5638C20.0736 16.6488 20.0064 16.7177 19.9235 16.7177H17.2426C17.1597 16.7177 17.0925 16.6488 17.0925 16.5638V13.9032C17.0925 13.8182 17.1597 13.7493 17.2426 13.7493H19.9235C20.0064 13.7493 20.0736 13.8182 20.0736 13.9032V16.5638ZM7.5424 14.2468C7.45897 14.2468 7.39135 14.1782 7.39135 14.0935V10.4822C7.39135 10.3975 7.45897 10.3289 7.5424 10.3289H11.2321C12.5699 10.3289 13.3898 10.898 13.3898 12.1675C13.3898 13.3494 12.5699 14.2468 11.1889 14.2468H7.5424ZM7.5424 4.70391H10.9947C12.3973 4.70391 12.9799 5.16354 12.9799 6.27979C12.9799 7.3085 12.3541 7.85567 11.1674 7.85567H7.5424C7.45897 7.85567 7.39135 7.78708 7.39135 7.70246V4.85713C7.39135 4.7725 7.45897 4.70391 7.5424 4.70391ZM4.65105 16.72H10.9516C14.555 16.72 16.3028 15.0347 16.3028 12.3863C16.3028 10.5136 15.5151 9.52863 14.4758 9.01559C14.3526 8.95473 14.3481 8.75942 14.466 8.68833C15.2846 8.19448 15.8712 7.24797 15.8712 6.14847C15.8712 3.71898 14.3608 2.18687 11.5558 2.18687H4.65105C4.56763 2.18687 4.5 2.25547 4.5 2.34009V16.5668C4.5 16.6515 4.56763 16.72 4.65105 16.72Z" fill="#4A7DFF"/>
</svg>
