<svg width="52" height="20" viewBox="0 0 52 20" fill="none" xmlns="http://www.w3.org/2000/svg">
<path fill-rule="evenodd" clip-rule="evenodd" d="M23.5039 16.7187C23.5871 16.7187 23.6545 16.6501 23.6545 16.5654V2.15333C23.6545 2.06865 23.5871 2 23.5039 2H21.0067C20.9235 2 20.856 2.06865 20.856 2.15333V16.5654C20.856 16.6501 20.9235 16.7187 21.0067 16.7187H23.5039ZM27.911 16.5654C27.911 16.6501 27.8435 16.7187 27.7603 16.7187H25.2631C25.1799 16.7187 25.1124 16.6501 25.1124 16.5654V6.09584C25.1124 6.01115 25.1799 5.94251 25.2631 5.94251H27.7603C27.8435 5.94251 27.911 6.01115 27.911 6.09584V16.5654ZM27.911 4.49692C27.911 4.58159 27.8435 4.65024 27.7603 4.65024H25.2631C25.1799 4.65024 25.1124 4.58159 25.1124 4.49692V2.15333C25.1124 2.06865 25.1799 2 25.2631 2H27.7603C27.8435 2 27.911 2.06865 27.911 2.15333V4.49692ZM49.849 16.7187C49.962 16.7187 50.0349 16.5969 49.9829 16.4949L46.6776 10.0018C46.6487 9.94477 46.6576 9.87542 46.7001 9.82798L49.953 6.19913C50.0412 6.10068 49.9725 5.94251 49.8415 5.94251H46.8275C46.7837 5.94251 46.7421 5.96182 46.7135 5.99544L43.5343 9.72757C43.4429 9.83486 43.2696 9.76913 43.2696 9.62717V2.15333C43.2696 2.06865 43.2021 2 43.1188 2H40.599C40.5158 2 40.4483 2.06865 40.4483 2.15333V16.5654C40.4483 16.6501 40.5158 16.7187 40.599 16.7187H43.1188C43.2021 16.7187 43.2696 16.6501 43.2696 16.5654V13.364C43.2696 13.3242 43.2849 13.2859 43.3121 13.2573L44.477 12.035C44.5497 11.9587 44.6748 11.9789 44.7207 12.0744L46.9111 16.6327C46.9364 16.6853 46.9889 16.7187 47.0466 16.7187H49.849ZM38.887 16.7193C38.9704 16.7193 39.038 16.6505 39.038 16.5658V9.24429C39.038 6.89878 37.5508 5.6493 35.5249 5.6493C34.0776 5.6493 33.0819 6.12443 32.4187 7.0074C32.3237 7.13372 32.0979 7.06974 32.0979 6.91076V6.08771C32.0979 6.00297 32.0304 5.93426 31.9471 5.93426H29.5763C29.4929 5.93426 29.4254 6.00297 29.4254 6.08771V16.5658C29.4254 16.6505 29.4929 16.7193 29.5763 16.7193H32.0764C32.1597 16.7193 32.2273 16.6505 32.2273 16.5658V10.5376C32.2273 8.89355 32.9385 8.06057 34.4041 8.06057C35.7404 8.06057 36.2145 8.5209 36.2145 10.1869V16.5658C36.2145 16.6505 36.2821 16.7193 36.3654 16.7193H38.887ZM19.5736 16.5638C19.5736 16.6488 19.5064 16.7177 19.4235 16.7177H16.7426C16.6597 16.7177 16.5925 16.6488 16.5925 16.5638V13.9032C16.5925 13.8182 16.6597 13.7493 16.7426 13.7493H19.4235C19.5064 13.7493 19.5736 13.8182 19.5736 13.9032V16.5638ZM7.0424 14.2468C6.95897 14.2468 6.89135 14.1782 6.89135 14.0935V10.4822C6.89135 10.3975 6.95897 10.3289 7.0424 10.3289H10.7321C12.0699 10.3289 12.8898 10.898 12.8898 12.1675C12.8898 13.3494 12.0699 14.2468 10.6889 14.2468H7.0424ZM7.0424 4.70391H10.4947C11.8973 4.70391 12.4799 5.16354 12.4799 6.27979C12.4799 7.3085 11.8541 7.85567 10.6674 7.85567H7.0424C6.95897 7.85567 6.89135 7.78708 6.89135 7.70246V4.85713C6.89135 4.7725 6.95897 4.70391 7.0424 4.70391ZM4.15105 16.72H10.4516C14.055 16.72 15.8028 15.0347 15.8028 12.3863C15.8028 10.5136 15.0151 9.52863 13.9758 9.01559C13.8526 8.95473 13.8481 8.75942 13.966 8.68833C14.7846 8.19448 15.3712 7.24797 15.3712 6.14847C15.3712 3.71898 13.8608 2.18687 11.0558 2.18687H4.15105C4.06763 2.18687 4 2.25547 4 2.34009V16.5668C4 16.6515 4.06763 16.72 4.15105 16.72Z" fill="#161B21"/>
</svg>
