<svg width="20" height="21" viewBox="0 0 20 21" fill="none" xmlns="http://www.w3.org/2000/svg">
<path d="M7.95455 12.5455L2.5 18M13.15 12.1425L16.758 8.70645C17.1648 8.31899 17.1727 7.67248 16.7754 7.2752L13.2248 3.72457C12.8275 3.3273 12.181 3.33518 11.7935 3.74204L8.3575 7.35C8.23012 7.48362 8.07694 7.58999 7.90723 7.66265C7.73753 7.73531 7.55483 7.77276 7.37023 7.77273H4.82773C4.22023 7.77273 3.91614 8.50705 4.34568 8.93659L11.5634 16.1543C11.993 16.5839 12.7273 16.2791 12.7273 15.6723V13.1298C12.7272 12.9452 12.7647 12.7625 12.8374 12.5928C12.91 12.4231 13.0164 12.2699 13.15 12.1425Z" stroke-width="1.2" stroke-linecap="round" stroke-linejoin="round"/>
</svg>
