<svg width="20" height="20" viewBox="0 0 20 20" fill="none" xmlns="http://www.w3.org/2000/svg">
<path fill-rule="evenodd" clip-rule="evenodd" d="M17.5888 4.46403C17.779 4.65429 17.8858 4.91229 17.8858 5.18131C17.8858 5.45032 17.779 5.70833 17.5888 5.89858L7.95074 15.5366C7.76049 15.7268 7.50248 15.8337 7.23347 15.8337C6.96445 15.8337 6.70645 15.7268 6.51619 15.5366L1.95081 10.9712C1.766 10.7799 1.66374 10.5236 1.66605 10.2576C1.66837 9.9916 1.77506 9.73715 1.96317 9.54904C2.15127 9.36094 2.40572 9.25424 2.67173 9.25193C2.93774 9.24962 3.19401 9.35188 3.38535 9.53669L7.23347 13.3848L16.1542 4.46403C16.3445 4.27384 16.6025 4.16699 16.8715 4.16699C17.1405 4.16699 17.3985 4.27384 17.5888 4.46403Z" />
</svg>
