<svg width="4" height="20" viewBox="0 0 4 20" fill="none" xmlns="http://www.w3.org/2000/svg">
<path fill-rule="evenodd" clip-rule="evenodd" d="M2.33333 4.99984C1.41286 4.99984 0.666667 4.25365 0.666667 3.33317C0.666667 2.4127 1.41286 1.6665 2.33333 1.6665C3.25381 1.6665 4 2.4127 4 3.33317C4 4.25365 3.25381 4.99984 2.33333 4.99984ZM2.33333 11.6665C1.41286 11.6665 0.666666 10.9203 0.666666 9.99984C0.666666 9.07936 1.41286 8.33317 2.33333 8.33317C3.25381 8.33317 4 9.07936 4 9.99984C4 10.9203 3.25381 11.6665 2.33333 11.6665ZM0.666666 16.6665C0.666666 17.587 1.41286 18.3332 2.33333 18.3332C3.25381 18.3332 4 17.587 4 16.6665C4 15.746 3.25381 14.9998 2.33333 14.9998C1.41286 14.9998 0.666666 15.746 0.666666 16.6665Z" />
</svg>
