<svg width="24" height="24" viewBox="0 0 24 24" fill="none" xmlns="http://www.w3.org/2000/svg">
<path d="M15.9434 11.9432C15.9434 11.7416 15.8629 11.5561 15.7096 11.411L9.32252 5.15291C9.17736 5.01582 8.99994 4.94324 8.79027 4.94324C8.37898 4.94324 8.0564 5.25775 8.0564 5.67711C8.0564 5.87872 8.13704 6.0642 8.26607 6.2013L14.137 11.9432L8.26607 17.6851C8.13704 17.8222 8.0564 17.9997 8.0564 18.2093C8.0564 18.6287 8.37898 18.9432 8.79027 18.9432C8.99994 18.9432 9.17736 18.8706 9.32252 18.7254L15.7096 12.4755C15.8629 12.3223 15.9434 12.1448 15.9434 11.9432Z" />
</svg>
