<svg width="24" height="24" viewBox="0 0 24 24" fill="none" xmlns="http://www.w3.org/2000/svg">
<path fill-rule="evenodd" clip-rule="evenodd" d="M12 22C17.5228 22 22 17.5228 22 12C22 6.47715 17.5228 2 12 2C6.47715 2 2 6.47715 2 12C2 17.5228 6.47715 22 12 22ZM16.84 7.96186L12.804 11.9984L16.84 16.0413C17.0543 16.2558 17.0543 16.6153 16.84 16.836C16.7675 16.9106 16.6771 16.9593 16.5808 16.9827C16.6759 16.959 16.7652 16.9105 16.8368 16.8368C17.0512 16.6161 17.0512 16.2565 16.8368 16.0421L12.8009 11.9992L16.8368 7.96264C17.0512 7.74819 17.0576 7.38238 16.8368 7.16794C16.8321 7.1632 16.8273 7.15857 16.8224 7.15404C16.6782 7.0197 16.4779 6.97461 16.2978 7.01876C16.4783 6.97342 16.6795 7.01792 16.8245 7.15225C16.8297 7.1571 16.8349 7.16208 16.84 7.16716C17.0607 7.38161 17.0543 7.74742 16.84 7.96186ZM12 12.8002L12.0012 12.8014L7.96719 16.836C7.89449 16.9087 7.80439 16.9568 7.70844 16.9802C7.80322 16.9565 7.89215 16.9087 7.96406 16.8368L12 12.8002ZM7.42592 7.01609C7.61448 6.96893 7.82534 7.02111 7.96719 7.16716L12.002 11.2025L12 11.2045L7.96406 7.16794C7.82299 7.0227 7.61368 6.97029 7.42592 7.01609ZM17.0505 6.9535C17.3949 7.28976 17.3792 7.84683 17.0521 8.17397L13.2281 11.9986L17.0521 15.8292C17.3853 16.1625 17.3809 16.7096 17.0551 17.045C16.7191 17.391 16.1546 17.3758 15.8269 17.0481L12.0031 13.2237L8.17936 17.0481C7.84612 17.3814 7.29269 17.3771 6.95727 17.0512C6.61136 16.7151 6.62655 16.1569 6.95414 15.8292L10.7782 11.9986L6.95416 8.17398C6.62145 7.84121 6.62529 7.29523 6.94964 6.95966C7.28581 6.60544 7.85256 6.62051 8.18071 6.95641L12.0031 10.7794L15.8256 6.9564C16.1592 6.6149 16.7148 6.61939 17.0505 6.9535Z"/>
</svg>
